<?xml version="1.0" encoding="UTF-8"?>
<svg version="1.1" xmlns="http://www.w3.org/2000/svg" width="1024" height="490">
<path d="M0 0 C337.92 0 675.84 0 1024 0 C1024 161.7 1024 323.4 1024 490 C686.08 490 348.16 490 0 490 C0 328.3 0 166.6 0 0 Z " fill="#ECEDED" transform="translate(0,0)"/>
<path d="M0 0 C29.37 0 58.74 0 89 0 C89 0.66 89 1.32 89 2 C89.85271484 2.05607422 89.85271484 2.05607422 90.72265625 2.11328125 C91.49480469 2.17902344 92.26695312 2.24476562 93.0625 2.3125 C94.19365234 2.39951172 94.19365234 2.39951172 95.34765625 2.48828125 C108.03120069 4.93532738 118.04577032 14.00491011 125.1953125 24.203125 C134.23512664 38.21288024 136.59360081 53.74281896 133.26953125 70.14453125 C128.77810863 87.06527851 118.75889217 98.27687552 103.94140625 107.24609375 C92.94515332 113.28628902 80.51096344 112.24174162 68.375 112.125 C62.31125 112.08375 56.2475 112.0425 50 112 C50 99.46 50 86.92 50 74 C66.625 73.75 66.625 73.75 71.83837891 73.70214844 C73.21780692 73.6727552 74.59720537 73.64192521 75.9765625 73.609375 C76.67998779 73.60824707 77.38341309 73.60711914 78.1081543 73.60595703 C83.17413123 73.46035237 86.10711748 72.21051988 90 69 C93.19876634 63.66872277 94.22392541 58.15910853 93 52 C90.20861212 46.93828331 87.38769655 45.15507862 82 43 C62.695 42.505 62.695 42.505 43 42 C43 78.96 43 115.92 43 154 C28.81 154 14.62 154 0 154 C0 103.18 0 52.36 0 0 Z " fill="#2B62DB" transform="translate(375,124)"/>
<path d="M0 0 C14.35070846 -0.60975113 26.70000584 1.18531562 39.91601562 7.09863281 C39.91601562 7.75863281 39.91601562 8.41863281 39.91601562 9.09863281 C40.64433594 9.36675781 41.37265625 9.63488281 42.12304688 9.91113281 C52.10741688 14.15623558 63.15318503 23.25006786 67.91601562 33.09863281 C66.63979841 36.92728446 65.29492893 37.40135743 61.91601562 39.53613281 C58.01901951 42.03732984 54.21100605 44.58364576 50.47851562 47.32519531 C49.723125 47.8763501 48.96773437 48.42750488 48.18945312 48.99536133 C46.68766415 50.09573785 45.19268104 51.20547084 43.70507812 52.32495117 C42.66480469 53.08110718 42.66480469 53.08110718 41.60351562 53.85253906 C40.68119141 54.5381189 40.68119141 54.5381189 39.74023438 55.23754883 C37.91601562 56.09863281 37.91601562 56.09863281 35.81835938 55.87573242 C33.47638406 54.91904513 32.23499549 53.38251884 30.52539062 51.56738281 C22.03290634 43.81696026 12.62417767 41.65055354 1.41992188 41.85253906 C-6.6353446 42.41829356 -12.32296211 44.69744398 -18.49023438 49.89160156 C-20.08398438 51.09863281 -20.08398438 51.09863281 -22.08398438 51.09863281 C-22.35082031 51.64519531 -22.61765625 52.19175781 -22.89257812 52.75488281 C-24.7339212 56.37719706 -26.75403924 59.90009967 -28.74414062 63.44238281 C-32.65651495 71.19869343 -32.19033537 81.44997415 -30.21289062 89.75878906 C-25.79533136 102.1424388 -18.62472226 108.32826387 -7.08398438 114.09863281 C10.11294148 115.72589414 10.11294148 115.72589414 25.77929688 109.96582031 C29.35583862 106.84043283 32.76465739 103.65632663 35.91601562 100.09863281 C40.95408639 101.73179917 44.86176036 104.71605284 49.10351562 107.78613281 C50.6164386 108.86830089 52.12945911 109.95033261 53.64257812 111.03222656 C54.37250977 111.55671387 55.10244141 112.08120117 55.85449219 112.62158203 C58.54819414 114.55157928 61.26086984 116.45251033 63.97851562 118.34863281 C64.75324219 118.89003906 65.52796875 119.43144531 66.32617188 119.98925781 C66.85082031 120.35535156 67.37546875 120.72144531 67.91601562 121.09863281 C67.52467126 126.12088549 64.87530879 128.91612599 61.54101562 132.41113281 C61.00081787 132.9829126 60.46062012 133.55469238 59.90405273 134.14379883 C46.31540001 148.19288202 28.16630922 156.86453376 8.51757812 157.26660156 C6.52541528 157.27845967 4.53321335 157.28484586 2.54101562 157.28613281 C1.55101562 157.29837891 0.56101562 157.310625 -0.45898438 157.32324219 C-9.7491365 157.34162639 -17.38115849 155.81697096 -25.70898438 151.72363281 C-26.63324219 151.28664063 -26.63324219 151.28664063 -27.57617188 150.84082031 C-44.67038186 142.65283738 -56.69626328 130.02762537 -65.50195312 113.25488281 C-66.08398438 111.09863281 -66.08398438 111.09863281 -65.43164062 109.02050781 C-63.93186038 106.88169076 -62.37387498 105.47738267 -60.33398438 103.84863281 C-50.11374644 95.14113767 -42.79213301 82.4623839 -41.08398438 69.09863281 C-40.16846386 54.22369056 -40.50487527 41.02017545 -47.74414062 27.72753906 C-48.90968662 25.44062228 -49.523109 23.57207676 -50.08398438 21.09863281 C-34.34381962 9.0139708 -20.14452099 0.95341922 0 0 Z " fill="#22B9F3" transform="translate(557.083984375,122.9013671875)"/>
<path d="M0 0 C29.37 0 58.74 0 89 0 C89 0.66 89 1.32 89 2 C89.85271484 2.05607422 89.85271484 2.05607422 90.72265625 2.11328125 C91.49480469 2.17902344 92.26695312 2.24476562 93.0625 2.3125 C94.19365234 2.39951172 94.19365234 2.39951172 95.34765625 2.48828125 C108.03120069 4.93532738 118.04577032 14.00491011 125.1953125 24.203125 C134.23512664 38.21288024 136.59360081 53.74281896 133.26953125 70.14453125 C128.77810863 87.06527851 118.75889217 98.27687552 103.94140625 107.24609375 C92.94515332 113.28628902 80.51096344 112.24174162 68.375 112.125 C62.31125 112.08375 56.2475 112.0425 50 112 C50 99.46 50 86.92 50 74 C66.625 73.75 66.625 73.75 71.83837891 73.70214844 C73.21780692 73.6727552 74.59720537 73.64192521 75.9765625 73.609375 C76.67998779 73.60824707 77.38341309 73.60711914 78.1081543 73.60595703 C83.17413123 73.46035237 86.10711748 72.21051988 90 69 C93.19876634 63.66872277 94.22392541 58.15910853 93 52 C90.35875266 47.21053815 87.18712474 44.65208721 82 43 C78.99591932 42.67370257 76.00033888 42.62810403 72.98046875 42.5859375 C72.12189774 42.56657135 71.26332672 42.5472052 70.3787384 42.5272522 C67.64842526 42.46768444 64.91806943 42.42116266 62.1875 42.375 C60.33136227 42.33679921 58.47524188 42.29774625 56.61914062 42.2578125 C52.07956856 42.16200173 47.53991354 42.07788679 43 42 C44.375 40 44.375 40 46 38 C46.66 38 47.32 38 48 38 C48 37.34 48 36.68 48 36 C48.66 36 49.32 36 50 36 C50 35.34 50 34.68 50 34 C50.928125 33.401875 51.85625 32.80375 52.8125 32.1875 C56.06914185 30.27754935 56.06914185 30.27754935 57.5 27.5 C59.44470458 24.25882571 61.83631729 23.02475693 65 21 C67.31374939 18.79386686 69.51006733 16.52622398 71.6875 14.1875 C73 13 73 13 75 13 C75.33 12.01 75.66 11.02 76 10 C77.99609375 8.17578125 77.99609375 8.17578125 80.4375 6.3125 C81.24058594 5.68988281 82.04367187 5.06726563 82.87109375 4.42578125 C85 3 85 3 87 3 C87 2.34 87 1.68 87 1 C58.29 1 29.58 1 0 1 C0 0.67 0 0.34 0 0 Z " fill="#367AF8" transform="translate(375,124)"/>
<path d="M0 0 C9.98230211 2.03029873 19.53552054 4.16891415 28 10 C31.28961858 11.17308098 34.62159874 12.11867793 38 13 C35.61995476 26.63116817 28.16606133 36.79043584 16.9375 44.875 C3.04108638 53.97511678 -9.39789853 54.28109623 -25.625 54.125 C-31.68875 54.08375 -37.7525 54.0425 -44 54 C-44 41.46 -44 28.92 -44 16 C-27.375 15.75 -27.375 15.75 -22.16162109 15.70214844 C-20.78219308 15.6727552 -19.40279463 15.64192521 -18.0234375 15.609375 C-17.32001221 15.60824707 -16.61658691 15.60711914 -15.8918457 15.60595703 C-10.82869745 15.46043367 -7.87497152 14.23530058 -4 11 C-2.13142998 7.39172686 -0.93922635 3.92924051 0 0 Z " fill="#1445BB" transform="translate(469,182)"/>
<path d="M0 0 C0 0.66 0 1.32 0 2 C0.72832031 2.268125 1.45664062 2.53625 2.20703125 2.8125 C12.19140125 7.05760277 23.23716941 16.15143504 28 26 C26.72378278 29.82865165 25.3789133 30.30272461 22 32.4375 C18.10300389 34.93869702 14.29499043 37.48501295 10.5625 40.2265625 C9.80710937 40.77771729 9.05171875 41.32887207 8.2734375 41.89672852 C6.77164852 42.99710504 5.27666541 44.10683803 3.7890625 45.22631836 C3.09554687 45.73042236 2.40203125 46.23452637 1.6875 46.75390625 C0.76517578 47.43948608 0.76517578 47.43948608 -0.17578125 48.13891602 C-2 49 -2 49 -4.09765625 48.77709961 C-6.44365222 47.81876989 -7.68904275 46.26689652 -9.41796875 44.46484375 C-15.07815046 39.22393476 -20.80626103 36.86837766 -28.375 35.75 C-34.51920667 34.61415206 -34.51920667 34.61415206 -36.60546875 31.94921875 C-37.6039432 29.32873275 -38.29124399 26.71176212 -39 24 C-39.81235217 22.29197749 -40.66704684 20.60345936 -41.5625 18.9375 C-43.54478378 15.06992491 -45.02437503 11.25166063 -46.30859375 7.10546875 C-46.98633402 5.04161561 -47.79537345 3.10427612 -48.6875 1.125 C-50 -2 -50 -2 -50 -5 C-50.99 -5.33 -51.98 -5.66 -53 -6 C-34.37989765 -8.34320389 -17.3189501 -7.74911998 0 0 Z " fill="#25BAF2" transform="translate(597,130)"/>
<path d="M0 0 C2 0 2 0 3.55078125 1.5390625 C4.42283203 2.57160156 4.42283203 2.57160156 5.3125 3.625 C5.93382812 4.35203125 6.55515625 5.0790625 7.1953125 5.828125 C8.2859884 7.14071332 9.36713107 8.46142157 10.4296875 9.796875 C12.78143732 12.74751763 14.61756911 14.41448552 18 16 C19.12277308 17.09656047 20.24023926 18.1988718 21.33691406 19.3215332 C23.41596419 21.41981119 25.54871226 23.4583968 27.6796875 25.50390625 C29.41177087 27.18978313 31.1435333 28.87598978 32.875 30.5625 C33.76703125 31.41263672 34.6590625 32.26277344 35.578125 33.13867188 C36.41601562 33.96044922 37.25390625 34.78222656 38.1171875 35.62890625 C38.88659668 36.37213135 39.65600586 37.11535645 40.44873047 37.88110352 C42 40 42 40 41.8203125 42.14941406 C40.82202751 44.40149747 39.59193875 46.20467609 38.125 48.1875 C34.78653366 52.83799735 31.61206816 57.57157888 28.5 62.375 C28.02780029 63.10283691 27.55560059 63.83067383 27.0690918 64.58056641 C23.62025929 69.93877681 20.40702526 75.38573638 17.33984375 80.97265625 C16.89769531 81.64167969 16.45554687 82.31070313 16 83 C15.34 83 14.68 83 14 83 C13.7834375 84.175625 13.7834375 84.175625 13.5625 85.375 C13 88 13 88 12 90 C11.34 90 10.68 90 10 90 C9.773125 90.680625 9.54625 91.36125 9.3125 92.0625 C7.91995702 95.1791438 6.19618699 97.62192879 4.17578125 100.3515625 C2.8939504 102.14868084 1.8888731 103.97983386 1 106 C0.67 106 0.34 106 0 106 C0 71.02 0 36.04 0 0 Z " fill="#113680" transform="translate(375,125)"/>
<path d="M0 0 C2.455124 5.76551661 4.86914192 11.52042498 6.9375 17.4375 C8.86635713 22.89068867 11.30311061 28.04997036 13.828125 33.25 C15 36 15 36 15 39 C14.02160156 39.14695313 13.04320312 39.29390625 12.03515625 39.4453125 C4.62129121 40.67338764 -1.19585543 41.96653853 -7.265625 46.6953125 C-9 48 -9 48 -12 49 C-13.07079034 50.80141772 -13.07079034 50.80141772 -14 53 C-14.46277344 53.77214844 -14.92554688 54.54429687 -15.40234375 55.33984375 C-19.5396153 62.34057042 -21.55391063 69.02113848 -23 77 C-26.37462715 76.45276317 -28.08235 75.9451 -31 74 C-31.30883789 71.37719727 -31.30883789 71.37719727 -31.22265625 68.06640625 C-31.20396484 66.85919922 -31.18527344 65.65199219 -31.16601562 64.40820312 C-31.13185547 63.13912109 -31.09769531 61.87003906 -31.0625 60.5625 C-30.63228306 43.99018934 -30.63228306 43.99018934 -36.0625 28.5625 C-37.81722673 25.34049566 -39.19063022 22.56929701 -40 19 C-14.98090722 -0.20864773 -14.98090722 -0.20864773 0 0 Z " fill="#1243B7" transform="translate(547,125)"/>
<path d="M0 0 C5.03807076 1.63316636 8.94574473 4.61742003 13.1875 7.6875 C14.70042297 8.76966808 16.21344349 9.8516998 17.7265625 10.93359375 C18.45649414 11.45808105 19.18642578 11.98256836 19.93847656 12.52294922 C22.63217851 14.45294647 25.34485422 16.35387751 28.0625 18.25 C28.83722656 18.79140625 29.61195313 19.3328125 30.41015625 19.890625 C30.93480469 20.25671875 31.45945312 20.6228125 32 21 C31.60865564 26.02225268 28.95929317 28.81749318 25.625 32.3125 C25.08480225 32.88427979 24.54460449 33.45605957 23.98803711 34.04516602 C15.51776823 42.80243685 6.21477298 48.32965688 -5 53 C-5.89589844 53.37769531 -6.79179688 53.75539063 -7.71484375 54.14453125 C-10.35104735 55.13141772 -12.20964768 55.37707464 -15 55 C-17 52 -17 52 -17 49 C-17.66 49 -18.32 49 -19 49 C-19.226875 47.9275 -19.45375 46.855 -19.6875 45.75 C-21.43089927 38.75149722 -24.4213791 32.09877436 -27.6875 25.6875 C-29.24369705 22.50100128 -30.10857689 19.42855043 -31 16 C-29.89205078 15.88785156 -29.89205078 15.88785156 -28.76171875 15.7734375 C-16.50000348 14.18424442 -8.14994817 9.20080108 0 0 Z " fill="#1545BA" transform="translate(593,223)"/>
<path d="M0 0 C28.05 0 56.1 0 85 0 C85 0.66 85 1.32 85 2 C83.02866014 3.37535339 81.02318078 4.70211044 79 6 C75.36370936 8.74939048 72.18188566 11.7385672 69 15 C65.82655145 18.25278476 62.67704231 21.31675291 59 24 C58.34 24 57.68 24 57 24 C56.773125 24.7425 56.54625 25.485 56.3125 26.25 C54.7410439 29.5425747 53.00004284 30.97497109 50 33 C49.34 33 48.68 33 48 33 C48 33.66 48 34.32 48 35 C47.34 35 46.68 35 46 35 C46 35.66 46 36.32 46 37 C45.01 37.495 45.01 37.495 44 38 C47.96 38.33 51.92 38.66 56 39 C56 39.33 56 39.66 56 40 C51.05 40 46.1 40 41 40 C40.505 40.99 40.505 40.99 40 42 C39.63390625 41.56171875 39.2678125 41.1234375 38.890625 40.671875 C35.05959043 36.18409165 31.0375759 31.92796435 26.875 27.75 C26.37258789 27.24307617 25.87017578 26.73615234 25.35253906 26.21386719 C23.03607172 23.90653778 20.71374528 21.77692412 18.1328125 19.765625 C17.42898438 19.18296875 16.72515625 18.6003125 16 18 C16 17.34 16 16.68 16 16 C15.319375 15.835 14.63875 15.67 13.9375 15.5 C10.24133918 13.61259873 8.27271253 11.13163169 5.6484375 7.96875 C3.94238185 5.86376654 3.94238185 5.86376654 1.5625 3.625 C0 2 0 2 0 0 Z " fill="#2960DE" transform="translate(377,125)"/>
<path d="M0 0 C2.06671312 1.12516707 3.68779228 2.33066638 5.4296875 3.90625 C7.22810152 5.38102856 7.22810152 5.38102856 11 5 C11.886875 4.175 12.77375 3.35 13.6875 2.5 C16.29708989 0.16858974 18.06342859 -0.40700142 21.5625 -0.5 C25.4364504 -0.25258804 28.01877294 0.36950553 31 3 C33.92040659 7.53166539 34 9.33492809 34 15 C27.73 15 21.46 15 15 15 C17.36010516 20.2273524 17.36010516 20.2273524 21.3125 20.9375 C25.06145728 21.00104165 27.55978434 20.42643088 31 19 C31.495 20.98 31.495 20.98 32 23 C28.43868482 25.67098639 25.54611332 26.51574891 21.0703125 26.37109375 C17.50868978 25.73268968 14.98979882 23.99319921 12 22 C12 21.34 12 20.68 12 20 C10.02051797 20.97007729 8.0776334 21.95445064 6.17578125 23.0703125 C1.13101723 25.9258393 -3.22454855 27.04813749 -9 26 C-13.91624028 23.63292134 -16.18602527 21.13959507 -18 16 C-18.54016234 11.6787013 -18.3251256 9.60380468 -16.25 5.75 C-11.48369438 -0.07548465 -7.38985029 -1.27529003 0 0 Z " fill="#E8E8E6" transform="translate(356,332)"/>
<path d="M0 0 C0.33 0.99 0.66 1.98 1 3 C2.32544541 3.68221455 3.65988972 4.34706306 5 5 C6.640625 6.69921875 6.640625 6.69921875 8.25 8.6875 C11.22307674 12.20458652 14.37964053 15.16367526 17.87890625 18.14453125 C20.26688993 20.23346725 22.54713895 22.40369783 24.8125 24.625 C25.54082031 25.33914063 26.26914062 26.05328125 27.01953125 26.7890625 C29 29 29 29 30.53125 31.57421875 C32.02812779 34.04645574 33.42834826 35.42090965 35.6875 37.1875 C37.57421875 38.66796875 37.57421875 38.66796875 39 40 C39 40.66 39 41.32 39 42 C39.66 42 40.32 42 41 42 C41 42.99 41 43.98 41 45 C41.99 45.495 41.99 45.495 43 46 C28.81 46 14.62 46 0 46 C0 30.82 0 15.64 0 0 Z " fill="#2D68DD" transform="translate(375,232)"/>
<path d="M0 0 C0.33 0.66 0.66 1.32 1 2 C14.53 2 28.06 2 42 2 C42 16.85 42 31.7 42 47 C41.34 47 40.68 47 40 47 C40 46.01 40 45.02 40 44 C39.34 44 38.68 44 38 44 C36.28769752 42.38025441 34.62836738 40.7041054 33 39 C32.13375 38.175 31.2675 37.35 30.375 36.5 C28 34 28 34 26.7109375 31.71484375 C24.62016774 28.39729812 22.03944596 25.78316154 19.25 23.0625 C18.71503906 22.53325928 18.18007813 22.00401855 17.62890625 21.45874023 C14.83672878 18.71769071 12.00533062 16.07129774 9 13.5625 C6.25290657 11.21602436 4.19618956 8.84691239 2 6 C1.34 5.67 0.68 5.34 0 5 C-0.6875 3 -0.6875 3 -1 1 C-0.67 0.67 -0.34 0.34 0 0 Z " fill="#1647BE" transform="translate(376,230)"/>
<path d="M0 0 C0.33 0.66 0.66 1.32 1 2 C1.639375 2.12375 2.27875 2.2475 2.9375 2.375 C3.618125 2.58125 4.29875 2.7875 5 3 C5.6837045 4.32467746 6.34964186 5.65863633 7 7 C8.32407669 7.68486725 9.65909241 8.34870203 11 9 C11.804375 9.825 12.60875 10.65 13.4375 11.5 C15.95063538 13.9518394 17.69600416 14.96160131 21 16 C21 16.66 21 17.32 21 18 C21.639375 18.268125 22.27875 18.53625 22.9375 18.8125 C25 20 25 20 26 23 C27.31855428 23.69544002 28.65418548 24.3589029 30 25 C31.7109375 26.5859375 31.7109375 26.5859375 33.375 28.375 C36.36562897 31.47543608 39.37450424 33.70090513 43 36 C43 36.33 43 36.66 43 37 C38.37815577 38.17065117 33.93083209 38.12810853 29.19921875 38.09765625 C28.08625427 38.09614563 28.08625427 38.09614563 26.95080566 38.09460449 C24.19635457 38.08939812 21.44192563 38.07543695 18.6875 38.0625 C12.520625 38.041875 6.35375 38.02125 0 38 C0 25.46 0 12.92 0 0 Z " fill="#245FD7" transform="translate(425,198)"/>
<path d="M0 0 C1.8125 0.5 1.8125 0.5 4 2 C5.1579353 4.6682857 6.08536056 7.2476905 7 10 C7.84246774 12.27519951 8.69732341 14.54583853 9.5625 16.8125 C9.97628906 17.91207031 10.39007812 19.01164062 10.81640625 20.14453125 C11.9443324 23.12647449 11.9443324 23.12647449 14 26 C14.125 29.1875 14.125 29.1875 14 32 C14.66 32 15.32 32 16 32 C16.66 34.31 17.32 36.62 18 39 C11.7576078 40.1093673 5.64199552 40.14899051 -0.6875 40.125 C-1.71939453 40.12886719 -2.75128906 40.13273437 -3.81445312 40.13671875 C-4.80767578 40.13542969 -5.80089844 40.13414062 -6.82421875 40.1328125 C-7.72229248 40.13168457 -8.62036621 40.13055664 -9.5456543 40.12939453 C-11.8381816 40.00853116 -13.80341616 39.6442289 -16 39 C-15.44618967 34.22428492 -14.05470506 30.73692612 -11.8125 26.5 C-7.3427381 17.88430471 -3.57872318 9.02241478 0 0 Z " fill="#347BFA" transform="translate(560,240)"/>
<path d="M0 0 C1.21780151 -0.00676758 1.21780151 -0.00676758 2.46020508 -0.01367188 C6.81491824 -0.00291396 10.89991346 0.25505491 15.1875 1.125 C15.82684602 6.23976819 13.59283547 9.79754378 11.1875 14.125 C10.5275 14.125 9.8675 14.125 9.1875 14.125 C9.084375 14.846875 8.98125 15.56875 8.875 16.3125 C8.11625343 19.41646324 6.864835 21.41545885 5.1875 24.125 C4.45005134 25.79227523 3.71443525 27.46069591 3.015625 29.14453125 C2.04474687 31.46639546 1.02478601 33.76394827 0 36.0625 C-0.34417969 36.83464844 -0.68835938 37.60679687 -1.04296875 38.40234375 C-1.29691406 38.97082031 -1.55085937 39.53929687 -1.8125 40.125 C-4.63814419 36.70493676 -6.47381113 32.94228814 -8.3125 28.9375 C-8.62219727 28.26912109 -8.93189453 27.60074219 -9.25097656 26.91210938 C-11.17451526 22.69786658 -12.84360434 18.49155093 -14.19140625 14.0546875 C-14.83733387 12.04784319 -15.63490802 10.17154071 -16.5 8.25 C-17.8125 5.125 -17.8125 5.125 -17.8125 2.125 C-18.8025 1.795 -19.7925 1.465 -20.8125 1.125 C-13.87606284 0.25210004 -6.98250702 0.01613054 0 0 Z " fill="#357AF7" transform="translate(564.8125,122.875)"/>
<path d="M0 0 C3 2 3 2 3.67919922 4.31835938 C3.98520244 6.8763041 4.12927792 9.33105829 4.1328125 11.90625 C4.13474609 13.26943359 4.13474609 13.26943359 4.13671875 14.66015625 C4.13285156 15.59730469 4.12898438 16.53445312 4.125 17.5 C4.13080078 18.90572266 4.13080078 18.90572266 4.13671875 20.33984375 C4.13542969 21.24863281 4.13414062 22.15742188 4.1328125 23.09375 C4.13168457 23.91552734 4.13055664 24.73730469 4.12939453 25.58398438 C3.99271227 28.13607433 3.55843431 30.50895043 3 33 C-3.66039471 32.09930605 -8.5418684 31.15857646 -14 27 C-17.49293678 25.345451 -21.04378225 24.46951759 -24.796875 23.57421875 C-28.59583129 22.58406525 -32.29305817 21.28713258 -36 20 C-36 18.68 -36 17.36 -36 16 C-34.75863281 15.61199219 -33.51726562 15.22398437 -32.23828125 14.82421875 C-25.31207244 12.51729077 -18.73058691 9.41771707 -12.08789062 6.40820312 C-11.10369141 5.97056641 -10.11949219 5.53292969 -9.10546875 5.08203125 C-8.22012451 4.68218018 -7.33478027 4.2823291 -6.42260742 3.87036133 C-4 3 -4 3 0 3 C0 2.01 0 1.02 0 0 Z " fill="#2660DC" transform="translate(505,162)"/>
<path d="M0 0 C2.84625 -0.0825 5.6925 -0.165 8.625 -0.25 C9.51010254 -0.28641602 10.39520508 -0.32283203 11.30712891 -0.36035156 C16.71436474 -0.43580703 19.7013663 0.42882738 24 4 C26.48018753 6.48018753 26.32361558 7.38515951 26.375 10.8125 C26.30246371 14.40304651 26.10261158 15.82409443 24.25 19 C19.81432425 22.94282289 16.68442428 23.23489675 10.75 23.125 C9.48671875 23.10695313 8.2234375 23.08890625 6.921875 23.0703125 C5.95765625 23.04710937 4.9934375 23.02390625 4 23 C4 26.3 4 29.6 4 33 C2.68 33 1.36 33 0 33 C0 22.11 0 11.22 0 0 Z " fill="#464C54" transform="translate(268,324)"/>
<path d="M0 0 C3.62456225 1.35921084 4.65752114 2.49218652 6.8125 5.6875 C8.2341888 9.65326348 8.75410338 12.84000111 8 17 C5.89879731 21.05231947 4.23482711 23.33470322 0 25 C-4.38605167 25.62941829 -8.99829606 26.04352395 -13.015625 23.94921875 C-16.03295275 21.46651461 -17.85417414 19.48455509 -18.23828125 15.57421875 C-18.43962973 7.74282265 -18.43962973 7.74282265 -16.1875 3.9375 C-10.93116157 -0.71811403 -6.77036509 -0.62541496 0 0 Z " fill="#316FD7" transform="translate(585,332)"/>
<path d="M0 0 C1.32 0 2.64 0 4 0 C4 0.99 4 1.98 4 3 C4.66 2.505 5.32 2.01 6 1.5 C9.81058601 -0.405293 12.8110682 -0.65874331 17 0 C20 1.5 20 1.5 22 3 C22.66 2.505 23.32 2.01 24 1.5 C27.78813232 -0.39406616 30.83873385 -0.92472581 35 0 C37.69105198 2.17574416 39.45532928 3.91065856 41 7 C41.08308638 8.37548156 41.10736016 9.75485796 41.09765625 11.1328125 C41.09443359 11.93847656 41.09121094 12.74414062 41.08789062 13.57421875 C41.07532227 14.83685547 41.07532227 14.83685547 41.0625 16.125 C41.05798828 16.97449219 41.05347656 17.82398438 41.04882812 18.69921875 C41.03702874 20.79950909 41.01909306 22.8997633 41 25 C39.35 25 37.7 25 36 25 C35.93941406 23.87980469 35.87882812 22.75960938 35.81640625 21.60546875 C35.73198576 20.13280016 35.64733851 18.66014456 35.5625 17.1875 C35.52318359 16.44951172 35.48386719 15.71152344 35.44335938 14.95117188 C35.25618965 11.76928658 35.01279207 9.03837622 34 6 C30.70054409 5.0636079 30.70054409 5.0636079 27 5 C23.44155581 8.25343468 22.52633114 10.98755541 22.29296875 15.77148438 C22.27169922 16.78178711 22.27169922 16.78178711 22.25 17.8125 C22.20552734 18.85180664 22.20552734 18.85180664 22.16015625 19.91210938 C22.09000372 21.60746213 22.04267338 23.30373312 22 25 C20.68 25 19.36 25 18 25 C17.95101563 23.96359375 17.90203125 22.9271875 17.8515625 21.859375 C17.77650403 20.48955792 17.70095753 19.11976752 17.625 17.75 C17.5940625 17.06808594 17.563125 16.38617188 17.53125 15.68359375 C17.29383604 10.49699512 17.29383604 10.49699512 15 6 C12.32209537 5.16113831 9.8262059 5.18233586 7 5 C6.13580777 7.59257669 5.82419068 9.34037707 5.68359375 12.01171875 C5.64169922 12.76904297 5.59980469 13.52636719 5.55664062 14.30664062 C5.51732422 15.09232422 5.47800781 15.87800781 5.4375 16.6875 C5.39431641 17.48478516 5.35113281 18.28207031 5.30664062 19.10351562 C5.20072632 21.06881447 5.09987449 23.03438496 5 25 C3.35 25 1.7 25 0 25 C0 16.75 0 8.5 0 0 Z " fill="#4B4E52" transform="translate(396,332)"/>
<path d="M0 0 C4.11691106 0.07005215 5.33570284 0.17903678 8.75 2.6875 C12.29521971 7.71942475 12.6875 8.83736582 12.6875 15.4375 C6.0875 15.4375 -0.5125 15.4375 -7.3125 15.4375 C-4.11111052 20.49722622 -4.11111052 20.49722622 -1.05859375 20.9609375 C-0.29675781 20.91195313 0.46507812 20.86296875 1.25 20.8125 C2.01441406 20.77898437 2.77882813 20.74546875 3.56640625 20.7109375 C5.87207109 20.48283081 5.87207109 20.48283081 8.6875 19.4375 C9.3475 20.7575 10.0075 22.0775 10.6875 23.4375 C5.96998718 26.26800769 2.09125096 27.41901964 -3.3125 26.4375 C-7.26182999 24.35106152 -9.96413186 22.22584172 -12.3125 18.4375 C-12.97894035 14.71098773 -12.92195621 11.1718044 -12.3125 7.4375 C-9.9375 4.375 -9.9375 4.375 -7.3125 2.4375 C-4.74661548 -0.12838452 -3.56783131 0.0820746 0 0 Z " fill="#4875D5" transform="translate(672.3125,331.5625)"/>
<path d="M0 0 C3.59127675 1.40528221 4.72193236 2.56851574 6.8125 5.8125 C8 9 8 9 8 15 C1.73 15 -4.54 15 -11 15 C-8.63989484 20.2273524 -8.63989484 20.2273524 -4.6875 20.9375 C-0.93854272 21.00104165 1.55978434 20.42643088 5 19 C5.33 20.32 5.66 21.64 6 23 C2.43923923 25.67057057 -0.46110198 26.54245209 -4.94140625 26.34765625 C-8.71761818 25.70992786 -10.90751186 24.30420685 -14 22 C-16.9741633 17.68266618 -17.6486549 14.18923924 -17 9 C-12.76856967 1.14162939 -8.72226873 -1.12344069 0 0 Z " fill="#666769" transform="translate(382,332)"/>
<path d="M0 0 C3.3792573 2.03005291 6.22397384 4.44794768 8 8 C8 10.31 8 12.62 8 15 C-1.405 15.495 -1.405 15.495 -11 16 C-8.60069395 20.12444543 -8.60069395 20.12444543 -5.87890625 20.42578125 C-4.73228516 20.36970703 -4.73228516 20.36970703 -3.5625 20.3125 C-2.80066406 20.28800781 -2.03882813 20.26351563 -1.25390625 20.23828125 C0.91341783 20.0091534 2.90403 19.58725355 5 19 C5.33 19.99 5.66 20.98 6 22 C1.84214381 25.74905018 -1.74613589 25.5533828 -7.14453125 25.421875 C-10 25 -10 25 -13.125 22.75 C-16.45523331 17.86565781 -17.41063035 15.12154868 -16.6171875 9.2578125 C-15.60588371 5.55823281 -13.72783164 3.66129916 -11 1 C-7.48308711 -0.75845645 -3.82789463 -0.68065337 0 0 Z " fill="#4E5158" transform="translate(459,332)"/>
<path d="M0 0 C4.24859085 2.41976098 4.24859085 2.41976098 6 5 C6.72914217 8.63303661 6.56811998 12.12588902 6.375 15.8125 C6.34792969 16.79154297 6.32085937 17.77058594 6.29296875 18.77929688 C6.22245648 21.18846621 6.12398568 23.59308819 6 26 C4.35 26 2.7 26 1 26 C0.67 25.34 0.34 24.68 0 24 C-0.515625 24.33 -1.03125 24.66 -1.5625 25 C-4.96121795 26.39434583 -7.35594448 26.44751559 -11 26 C-13.9375 23.9375 -13.9375 23.9375 -16 21 C-16.5625 17.375 -16.5625 17.375 -16 14 C-13.60679921 11.47931636 -12.25701015 11.02327991 -8.765625 10.70703125 C-7.60546875 10.74183594 -6.4453125 10.77664063 -5.25 10.8125 C-3.49429687 10.85310547 -3.49429687 10.85310547 -1.703125 10.89453125 C-0.81109375 10.92933594 0.0809375 10.96414063 1 11 C-0.11854586 7.27385847 -0.11854586 7.27385847 -3 5 C-6.83588262 4.82951633 -10.2651627 5.12121475 -14 6 C-14.33 5.01 -14.66 4.02 -15 3 C-10.25445587 0.07966515 -5.48460507 -1.38943328 0 0 Z " fill="#575A5E" transform="translate(327,332)"/>
<path d="M0 0 C5.4344833 5.4344833 4.2555913 16.19410946 4.3125 23.4375 C4.2116814 38.05747326 0.64596957 50.06068498 -8 62 C-10.28515625 63.96484375 -10.28515625 63.96484375 -12 65 C-12 64.01 -12 63.02 -12 62 C-11.34 62 -10.68 62 -10 62 C-10 61.01 -10 60.02 -10 59 C-9.34 59 -8.68 59 -8 59 C-6.98459888 54.89776415 -6.98459888 54.89776415 -8 51 C-8.99 51.99 -9.98 52.98 -11 54 C-11.33 53.34 -11.66 52.68 -12 52 C-11.30554915 50.09538796 -10.51844514 48.22414553 -9.6875 46.375 C-5.93692441 38.01411802 -4.69097653 30.55799389 -4.375 21.5 C-4.33632813 20.5821875 -4.29765625 19.664375 -4.2578125 18.71875 C-4.16450436 16.47935472 -4.07871815 14.23994746 -4 12 C-3.34 11.67 -2.68 11.34 -2 11 C-1.57038779 8.94068468 -1.57038779 8.94068468 -1.4375 6.5625 C-1.09333333 2.18666667 -1.09333333 2.18666667 0 0 Z " fill="#DDE4EA" transform="translate(513,158)"/>
<path d="M0 0 C2.60673851 1.78021166 3.68785483 2.73733329 4.5625 5.75 C4.2325 6.41 3.9025 7.07 3.5625 7.75 C1.39375748 7.24396008 -0.43717627 6.75016187 -2.4375 5.75 C-7.24631593 5.14457353 -11.94610944 4.82178313 -16.0625 7.6875 C-18.85606503 11.28972859 -19.14626491 13.09800133 -18.8359375 17.53125 C-18.26757733 20.69623606 -17.20091195 23.07222631 -15.4375 25.75 C-12.23125113 27.88749925 -11.21291897 28.04574999 -7.5 28.0625 C-6.21802734 28.08763672 -6.21802734 28.08763672 -4.91015625 28.11328125 C-1.98506131 27.68352797 -0.75373333 26.50530835 1.5625 24.75 C2.5525 25.08 3.5425 25.41 4.5625 25.75 C4.375 27.5625 4.375 27.5625 3.5625 29.75 C-2.06793889 33.64799615 -6.63217648 34.78472755 -13.4375 33.75 C-19.30387937 30.95648601 -22.98699657 26.67204995 -25.4375 20.75 C-26.2251634 14.54715069 -25.28586364 9.77770088 -21.4375 4.75 C-14.8192069 -1.47119552 -8.52710145 -3.10076416 0 0 Z " fill="#2F71DE" transform="translate(558.4375,324.25)"/>
<path d="M0 0 C1.65 0 3.3 0 5 0 C5.33 0.66 5.66 1.32 6 2 C6.99 1.34 7.98 0.68 9 0 C13.59271203 -0.73965025 17.02462089 -0.60961194 21 1.875 C23.79969832 4.84967947 24.12414217 6.37867393 24.09765625 10.3515625 C24.09443359 11.20234375 24.09121094 12.053125 24.08789062 12.9296875 C24.07951172 13.81914062 24.07113281 14.70859375 24.0625 15.625 C24.05798828 16.5221875 24.05347656 17.419375 24.04882812 18.34375 C24.03702591 20.56256648 24.02056155 22.78125018 24 25 C22.35 25 20.7 25 19 25 C18.95101562 23.87980469 18.90203125 22.75960938 18.8515625 21.60546875 C18.77652144 20.13278797 18.70097418 18.66013293 18.625 17.1875 C18.5940625 16.44951172 18.563125 15.71152344 18.53125 14.95117188 C18.32653852 11.18106885 18.13566173 9.20349259 16 6 C14.098006 5.52441794 14.098006 5.52441794 12 5.625 C10.948125 5.61339844 10.948125 5.61339844 9.875 5.6015625 C7.58941406 5.859086 7.58941406 5.859086 6 9 C5.69933846 11.75417318 5.49074701 14.42645147 5.375 17.1875 C5.33632813 17.93708984 5.29765625 18.68667969 5.2578125 19.45898438 C5.16371784 21.30559199 5.08077681 23.1527619 5 25 C3.35 25 1.7 25 0 25 C0 16.75 0 8.5 0 0 Z " fill="#2A65D2" transform="translate(599,332)"/>
<path d="M0 0 C1.32 0 2.64 0 4 0 C4 0.99 4 1.98 4 3 C4.639375 2.505 5.27875 2.01 5.9375 1.5 C9.92933035 -0.45518221 13.62911472 -0.95051786 18 0 C20.76171875 1.35546875 20.76171875 1.35546875 23 4 C23.61911983 7.60030811 23.46999371 11.11068389 23.3125 14.75 C23.28994141 15.73355469 23.26738281 16.71710938 23.24414062 17.73046875 C23.18528805 20.1551947 23.10313431 22.57681983 23 25 C21.35 25 19.7 25 18 25 C17.93941406 23.71222656 17.87882813 22.42445313 17.81640625 21.09765625 C17.73201753 19.41925841 17.6473687 17.74087364 17.5625 16.0625 C17.52318359 15.21236328 17.48386719 14.36222656 17.44335938 13.48632812 C17.40146484 12.67744141 17.35957031 11.86855469 17.31640625 11.03515625 C17.27974854 10.2862915 17.24309082 9.53742676 17.20532227 8.76586914 C17.18228937 6.97538674 17.18228937 6.97538674 16 6 C11.98342857 5.77081758 11.98342857 5.77081758 8 6 C4.97906785 9.02093215 5.53323166 12.56372072 5.375 16.625 C5.33632813 17.42679687 5.29765625 18.22859375 5.2578125 19.0546875 C5.16346069 21.03607556 5.08063785 23.01800645 5 25 C3.35 25 1.7 25 0 25 C0 16.75 0 8.5 0 0 Z " fill="#2765D2" transform="translate(631,332)"/>
<path d="M0 0 C1.65 0 3.3 0 5 0 C5.33 0.66 5.66 1.32 6 2 C6.99 1.34 7.98 0.68 9 0 C11.0859375 -0.37109375 11.0859375 -0.37109375 13.375 -0.4375 C14.50035156 -0.49744141 14.50035156 -0.49744141 15.6484375 -0.55859375 C19.42824804 0.33926822 20.74969307 1.85508769 23 5 C23.59747088 8.46170783 23.47325277 11.81303576 23.3125 15.3125 C23.28994141 16.24384766 23.26738281 17.17519531 23.24414062 18.13476562 C23.18542078 20.4248396 23.10336858 22.71157875 23 25 C21.68 25 20.36 25 19 25 C18.95101563 23.87980469 18.90203125 22.75960938 18.8515625 21.60546875 C18.77652144 20.13278797 18.70097418 18.66013293 18.625 17.1875 C18.5940625 16.44951172 18.563125 15.71152344 18.53125 14.95117188 C18.32653852 11.18106885 18.13566173 9.20349259 16 6 C11.92789115 5.46926747 11.92789115 5.46926747 8 6 C4.89322754 8.80176969 4.59852725 11.60726807 4.38085938 15.68359375 C4.35830078 16.36550781 4.33574219 17.04742187 4.3125 17.75 C4.27833984 18.44738281 4.24417969 19.14476562 4.20898438 19.86328125 C4.12691705 21.57497108 4.06177081 23.2874576 4 25 C2.68 25 1.36 25 0 25 C0 16.75 0 8.5 0 0 Z " fill="#5C6067" transform="translate(473,332)"/>
<path d="M0 0 C1.65234375 1.1015625 1.65234375 1.1015625 4.15234375 3.1015625 C3.82234375 4.0915625 3.49234375 5.0815625 3.15234375 6.1015625 C2.51296875 5.9365625 1.87359375 5.7715625 1.21484375 5.6015625 C-1.41793645 5.17172083 -3.87514585 4.93736929 -6.53515625 4.8515625 C-7.30214844 4.82578125 -8.06914063 4.8 -8.859375 4.7734375 C-9.51550781 4.88171875 -10.17164063 4.99 -10.84765625 5.1015625 C-13.32804532 8.8221461 -13.31102828 10.69952821 -12.84765625 15.1015625 C-11.36772469 17.66494939 -11.36772469 17.66494939 -8.84765625 19.1015625 C-4.63354334 19.63953436 -1.66227263 18.89667609 2.15234375 17.1015625 C2.81234375 18.0915625 3.47234375 19.0815625 4.15234375 20.1015625 C1.85733943 22.63398106 -0.02394221 23.96010401 -3.41796875 24.54296875 C-8.08793437 24.74020163 -11.75594526 24.75844257 -15.53515625 21.7890625 C-17.84765625 19.1015625 -17.84765625 19.1015625 -17.84765625 16.1015625 C-18.50765625 16.1015625 -19.16765625 16.1015625 -19.84765625 16.1015625 C-20.3553752 10.31356643 -19.97925922 7.07037872 -16.26171875 2.51171875 C-12.13964773 -1.59896533 -5.23686197 -2.54646565 0 0 Z " fill="#2967D4" transform="translate(707.84765625,332.8984375)"/>
<path d="M0 0 C2.40566065 1.09391262 3.95563557 2.27842995 6 4 C5.67 4.99 5.34 5.98 5 7 C0.25 6.125 0.25 6.125 -2 5 C-5.54231061 4.61496624 -7.36257342 4.58064041 -10.375 6.5625 C-12.62340519 9.93510779 -12.56783945 12.02512383 -12 16 C-10.58333333 18.58333333 -10.58333333 18.58333333 -8 20 C-3.73910491 20.45652447 -0.64957865 20.33573034 3 18 C3.99 18.99 4.98 19.98 6 21 C2.62114085 24.46549657 0.4371441 26.37036072 -4.5 26.5625 C-8.95205203 26.28518363 -11.64570846 25.0348352 -15 22 C-17.910372 17.634442 -18.6506249 14.20499921 -18 9 C-13.63674853 0.8968187 -8.94541719 -1.33618653 0 0 Z " fill="#4E5156" transform="translate(356,332)"/>
<path d="M0 0 C1.98 0 3.96 0 6 0 C6 2.31 6 4.62 6 7 C8.31 7 10.62 7 13 7 C13 8.32 13 9.64 13 11 C10.69 11 8.38 11 6 11 C6.33 15.95 6.66 20.9 7 26 C8.65 26.33 10.3 26.66 12 27 C12.66 27.33 13.32 27.66 14 28 C13.67 29.65 13.34 31.3 13 33 C9.1903863 33.29879323 6.69769585 33.36889666 3.28125 31.5625 C-0.07151083 27.79638509 0.44068853 24.6102874 0.6875 19.75 C0.71005859 18.90953125 0.73261719 18.0690625 0.75585938 17.203125 C0.81462286 15.13465036 0.90430115 13.06709512 1 11 C-0.32 11 -1.64 11 -3 11 C-3 9.68 -3 8.36 -3 7 C-2.01 7 -1.02 7 0 7 C0 4.69 0 2.38 0 0 Z " fill="#2C65D7" transform="translate(718,325)"/>
<path d="M0 0 C1.91635217 -0.05423638 3.83314925 -0.09289963 5.75 -0.125 C7.35101563 -0.15980469 7.35101563 -0.15980469 8.984375 -0.1953125 C11.95022828 -0.00322356 13.55204664 0.36421808 16 2 C17.52491998 5.04983996 17.23562548 7.6423369 17 11 C15.45737187 13.10358381 14.31891683 13.84054159 12 15 C10.1478437 15.09584979 8.29212847 15.12983606 6.4375 15.125 C5.44621094 15.12757813 4.45492188 15.13015625 3.43359375 15.1328125 C1 15 1 15 0 14 C-0.07271741 11.64686445 -0.08370868 9.29166332 -0.0625 6.9375 C-0.05347656 5.64714844 -0.04445313 4.35679687 -0.03515625 3.02734375 C-0.02355469 2.02832031 -0.01195312 1.02929688 0 0 Z " fill="#DFE0E1" transform="translate(272,328)"/>
<path d="M0 0 C1.65 0 3.3 0 5 0 C5 1.98 5 3.96 5 6 C7.31 6 9.62 6 12 6 C12 7.32 12 8.64 12 10 C9.69 10 7.38 10 5 10 C5.33 15.28 5.66 20.56 6 26 C9 27.33333333 9 27.33333333 12 26 C12.33 27.65 12.66 29.3 13 31 C9.90826248 32.54586876 7.40570448 32.29359521 4 32 C1.7890625 30.55859375 1.7890625 30.55859375 0 28 C-0.48552189 24.90113964 -0.37702474 21.87676277 -0.25 18.75 C-0.23195313 17.90953125 -0.21390625 17.0690625 -0.1953125 16.203125 C-0.14830798 14.13492605 -0.07656724 12.06731559 0 10 C-1.32 10 -2.64 10 -4 10 C-4 8.68 -4 7.36 -4 6 C-2.68 6 -1.36 6 0 6 C0 4.02 0 2.04 0 0 Z " fill="#4B5058" transform="translate(505,326)"/>
<path d="M0 0 C2.12008311 1.61342752 2.89578018 2.4901679 3.43359375 5.12109375 C3.43994339 8.88642847 3.4311636 11.29289169 1.4375 14.5625 C-1.98306617 16.57975697 -4.09873948 16.6269883 -8 16 C-10.57836875 13.88441539 -11.72448716 12.31258474 -12.4140625 9.02734375 C-12.67905754 5.29649251 -12.28406518 3.35292947 -9.9375 0.4375 C-6.10852228 -1.43625505 -4.06665724 -1.12962701 0 0 Z " fill="#E8EAEC" transform="translate(584,337)"/>
<path d="M0 0 C2.7578125 1.35546875 2.7578125 1.35546875 5 4 C5.61948775 7.6002225 5.46999226 11.11071732 5.3125 14.75 C5.28994141 15.73355469 5.26738281 16.71710938 5.24414062 17.73046875 C5.18528805 20.1551947 5.10313431 22.57681983 5 25 C4.01 25 3.02 25 2 25 C1.67 24.01 1.34 23.02 1 22 C0.34 21.34 -0.32 20.68 -1 20 C-0.34 18.02 0.32 16.04 1 14 C-3.95 14 -8.9 14 -14 14 C-13.34 13.01 -12.68 12.02 -12 11 C-8.9609375 10.70703125 -8.9609375 10.70703125 -5.375 10.8125 C-4.18648438 10.83957031 -2.99796875 10.86664063 -1.7734375 10.89453125 C-0.85820312 10.92933594 0.05703125 10.96414063 1 11 C-0.11854586 7.27385847 -0.11854586 7.27385847 -3 5 C-6.83588262 4.82951633 -10.2651627 5.12121475 -14 6 C-14.33 5.01 -14.66 4.02 -15 3 C-10.20519485 0.04935067 -5.5455867 -1.22485132 0 0 Z " fill="#484B4F" transform="translate(327,332)"/>
<path d="M0 0 C0.33 0.66 0.66 1.32 1 2 C3.62616876 3.17486497 6.27044585 4.09014862 9 5 C9 5.66 9 6.32 9 7 C8.01 7 7.02 7 6 7 C6 7.66 6 8.32 6 9 C5.34 9 4.68 9 4 9 C3.73574219 9.60457031 3.47148438 10.20914063 3.19921875 10.83203125 C1.93949085 13.10938951 0.86140698 14.12620475 -1.1875 15.6875 C-4.96333233 18.76030079 -7.68199575 22.30729846 -10.51953125 26.2421875 C-11.00808594 26.82226562 -11.49664062 27.40234375 -12 28 C-12.66 28 -13.32 28 -14 28 C-14.0825 28.721875 -14.165 29.44375 -14.25 30.1875 C-15.1507657 33.56537138 -16.7673956 35.34878227 -19 38 C-19.33 38.99 -19.66 39.98 -20 41 C-20.66 41 -21.32 41 -22 41 C-22.66 39.02 -23.32 37.04 -24 35 C-23.21496094 34.33355469 -22.42992187 33.66710937 -21.62109375 32.98046875 C-14.71269752 26.97398064 -9.43193276 21.12086503 -5 13 C-4.401875 11.9275 -3.80375 10.855 -3.1875 9.75 C-1.80008034 6.53702816 -0.88030339 3.38578228 0 0 Z " fill="#357DEB" transform="translate(515,197)"/>
<path d="M0 0 C1.65 0 3.3 0 5 0 C5 11.55 5 23.1 5 35 C3.35 35 1.7 35 0 35 C0 23.45 0 11.9 0 0 Z " fill="#53565B" transform="translate(300,322)"/>
<path d="M0 0 C2 2 2 2 2.22705078 5.34814453 C2.22673375 6.77640633 2.21541361 8.20469212 2.1953125 9.6328125 C2.1924826 10.38464813 2.18965271 11.13648376 2.18673706 11.91110229 C2.17552874 14.31589578 2.15042352 16.72031881 2.125 19.125 C2.11497102 20.75390088 2.10584503 22.38280758 2.09765625 24.01171875 C2.07558735 28.00795556 2.04105351 32.00391494 2 36 C6.30538036 35.90598939 10.61024144 35.79979374 14.91503906 35.68261719 C16.37752189 35.64448794 17.84009338 35.60960786 19.30273438 35.578125 C21.41308132 35.53212289 23.52282634 35.47419059 25.6328125 35.4140625 C26.90012207 35.3826416 28.16743164 35.3512207 29.47314453 35.31884766 C32.94553039 35.00492436 35.75589514 34.24437401 39 33 C40.32 34.32 41.64 35.64 43 37 C38.37815577 38.17065117 33.93083209 38.12810853 29.19921875 38.09765625 C28.08625427 38.09614563 28.08625427 38.09614563 26.95080566 38.09460449 C24.19635457 38.08939812 21.44192563 38.07543695 18.6875 38.0625 C12.520625 38.041875 6.35375 38.02125 0 38 C0 25.46 0 12.92 0 0 Z " fill="#3F76D1" transform="translate(425,198)"/>
<path d="M0 0 C0.33 0.66 0.66 1.32 1 2 C2.53720703 1.98259766 2.53720703 1.98259766 4.10546875 1.96484375 C5.466144 1.95545978 6.82682124 1.94636023 8.1875 1.9375 C8.86103516 1.92912109 9.53457031 1.92074219 10.22851562 1.91210938 C13.95434131 1.89393462 17.3788042 2.10700608 21 3 C21 3.33 21 3.66 21 4 C14.73 4 8.46 4 2 4 C5.05564887 9.99553386 5.05564887 9.99553386 8.21875 10.62109375 C8.9715625 10.56050781 9.724375 10.49992187 10.5 10.4375 C11.2528125 10.39496094 12.005625 10.35242188 12.78125 10.30859375 C14.91107221 10.01236848 16.92801992 9.56979452 19 9 C19.33 9.99 19.66 10.98 20 12 C15.8425642 15.74867113 12.255836 15.5454716 6.859375 15.43359375 C3.95172993 14.99268036 2.83892482 14.61872518 0.8125 12.5625 C0.214375 11.716875 -0.38375 10.87125 -1 10 C-1.33 9.67 -1.66 9.34 -2 9 C-2.26293056 4.96839809 -2.29404844 3.44107266 0 0 Z " fill="#44464A" transform="translate(445,342)"/>
<path d="M0 0 C3.62815886 1.41971434 4.73109843 2.57346648 6.8125 5.875 C8 9 8 9 8 14 C1.73 14 -4.54 14 -11 14 C-11 13.34 -11 12.68 -11 12 C-6.05 12 -1.1 12 4 12 C1.83333333 6.16666667 1.83333333 6.16666667 -1 5 C-5.75705375 4.57715078 -8.03406778 5.46620997 -12 8 C-12.66 7.67 -13.32 7.34 -14 7 C-13.65557106 4.50289018 -13.15296001 3.17845335 -11.5 1.25 C-7.69732146 -0.65133927 -4.16956215 -0.53704557 0 0 Z " fill="#4C4E55" transform="translate(382,332)"/>
<path d="M0 0 C3.4430712 1.25202589 5.34074706 2.05411535 7.4375 5.0625 C8 7 8 7 7 9 C4.83125748 8.49396008 3.00032373 8.00016187 1 7 C-0.62165752 6.87851695 -2.24884327 6.82456348 -3.875 6.8125 C-4.73867188 6.79832031 -5.60234375 6.78414063 -6.4921875 6.76953125 C-9.1241288 7.01140748 -10.73980544 7.67016459 -13 9 C-13.66 8.01 -14.32 7.02 -15 6 C-15.99 6 -16.98 6 -18 6 C-12.14743541 1.35115437 -7.59150678 -1.44124471 0 0 Z " fill="#2864D0" transform="translate(555,323)"/>
<path d="M0 0 C1.65234375 1.1015625 1.65234375 1.1015625 4.15234375 3.1015625 C3.82234375 4.0915625 3.49234375 5.0815625 3.15234375 6.1015625 C2.51296875 5.9365625 1.87359375 5.7715625 1.21484375 5.6015625 C-1.41793645 5.17172083 -3.87514585 4.93736929 -6.53515625 4.8515625 C-7.30214844 4.82578125 -8.06914063 4.8 -8.859375 4.7734375 C-9.51550781 4.88171875 -10.17164063 4.99 -10.84765625 5.1015625 C-12.79275625 8.0192125 -13.30041942 9.72693535 -13.84765625 13.1015625 C-14.17765625 11.7815625 -14.50765625 10.4615625 -14.84765625 9.1015625 C-16.16765625 9.1015625 -17.48765625 9.1015625 -18.84765625 9.1015625 C-18.84765625 11.4115625 -18.84765625 13.7215625 -18.84765625 16.1015625 C-19.17765625 16.1015625 -19.50765625 16.1015625 -19.84765625 16.1015625 C-20.3553752 10.31356643 -19.97925922 7.07037872 -16.26171875 2.51171875 C-12.13964773 -1.59896533 -5.23686197 -2.54646565 0 0 Z " fill="#4D7DD7" transform="translate(707.84765625,332.8984375)"/>
<path d="M0 0 C2.3125 -0.3125 2.3125 -0.3125 5 0 C6.75 2.4375 6.75 2.4375 8 5 C8.99646464 6.21570074 8.99646464 6.21570074 10.9609375 6.1328125 C12.15589844 6.12894531 12.15589844 6.12894531 13.375 6.125 C14.56222656 6.12886719 14.56222656 6.12886719 15.7734375 6.1328125 C18.17343496 6.08617666 18.17343496 6.08617666 21 5 C21.66 6.32 22.32 7.64 23 9 C18.28248718 11.83050769 14.40375096 12.98151964 9 12 C5.14565644 9.96374303 2.15814421 7.83670083 0 4 C0 2.68 0 1.36 0 0 Z " fill="#2664D0" transform="translate(660,346)"/>
<path d="M0 0 C1.65 0 3.3 0 5 0 C5 0.99 5 1.98 5 3 C5.99 3.33 6.98 3.66 8 4 C7.51917969 4.82757813 7.03835938 5.65515625 6.54296875 6.5078125 C4.83887381 10.36467547 4.45306513 13.73033687 4.3125 17.875 C4.27833984 18.56335938 4.24417969 19.25171875 4.20898438 19.9609375 C4.12735909 21.64008613 4.0619843 23.32001168 4 25 C2.68 25 1.36 25 0 25 C0 16.75 0 8.5 0 0 Z " fill="#464A50" transform="translate(473,332)"/>
<path d="M0 0 C1.98 0 3.96 0 6 0 C6 2.31 6 4.62 6 7 C8.31 7 10.62 7 13 7 C13 8.32 13 9.64 13 11 C10.69 11 8.38 11 6 11 C6.33 15.95 6.66 20.9 7 26 C8.65 26.33 10.3 26.66 12 27 C12.66 27.33 13.32 27.66 14 28 C13.67 29.65 13.34 31.3 13 33 C9.625 33.1875 9.625 33.1875 6 33 C3.82783191 29.74174786 3.78357427 29.10989124 4.0234375 25.40234375 C4.075 24.51869141 4.1265625 23.63503906 4.1796875 22.72460938 C4.24414062 21.80486328 4.30859375 20.88511719 4.375 19.9375 C4.48702443 18.11328403 4.59900571 16.28906541 4.7109375 14.46484375 C4.76556152 13.656521 4.82018555 12.84819824 4.87646484 12.01538086 C4.9583924 10.67879586 5 9.33909357 5 8 C5 5.66666667 5 3.33333333 5 1 C3.68 1 2.36 1 1 1 C1 2.98 1 4.96 1 7 C0.67 7 0.34 7 0 7 C0 4.69 0 2.38 0 0 Z " fill="#2060D3" transform="translate(718,325)"/>
<path d="M0 0 C1.12132324 -0.02964844 2.24264648 -0.05929688 3.39794922 -0.08984375 C10.01964082 -0.13747468 14.10193004 0.38028524 19.5 4.3125 C19.5 4.9725 19.5 5.6325 19.5 6.3125 C20.16 6.3125 20.82 6.3125 21.5 6.3125 C21.995 8.7875 21.995 8.7875 22.5 11.3125 C22.05269531 10.90257812 21.60539062 10.49265625 21.14453125 10.0703125 C20.53996094 9.53148437 19.93539062 8.99265625 19.3125 8.4375 C18.72082031 7.90382812 18.12914062 7.37015625 17.51953125 6.8203125 C12.46578537 3.04710958 7.55015102 2.98318865 1.48046875 2.8984375 C0.19261223 2.86938828 0.19261223 2.86938828 -1.1212616 2.8397522 C-3.85157474 2.78018444 -6.58193057 2.73366266 -9.3125 2.6875 C-11.16863773 2.64929921 -13.02475812 2.61024625 -14.88085938 2.5703125 C-19.42043144 2.47450173 -23.96008646 2.39038679 -28.5 2.3125 C-28.5 1.9825 -28.5 1.6525 -28.5 1.3125 C-19.01429529 0.43593323 -9.52295993 0.12798602 0 0 Z " fill="#5586E5" transform="translate(446.5,163.6875)"/>
<path d="M0 0 C1 2 2 4 3 6 C3.66 6 4.32 6 5 6 C5 11.94 5 17.88 5 24 C3.35 24 1.7 24 0 24 C0 16.08 0 8.16 0 0 Z " fill="#2461CD" transform="translate(599,333)"/>
<path d="M0 0 C1.32 0.66 2.64 1.32 4 2 C-2.18512111 8.18512111 -2.18512111 8.18512111 -6.1875 8.3125 C-10.82850049 8.26808851 -13.44919062 7.10695821 -17 4 C-17.33 3.01 -17.66 2.02 -18 1 C-15.525 1.99 -15.525 1.99 -13 3 C-12.67 2.34 -12.34 1.68 -12 1 C-11.34 1.33 -10.68 1.66 -10 2 C-4.67032792 2.34092041 -4.67032792 2.34092041 0 0 Z " fill="#595C60" transform="translate(358,350)"/>
<path d="M0 0 C6.6 0 13.2 0 20 0 C19.01 0.66 18.02 1.32 17 2 C17.33 3.32 17.66 4.64 18 6 C17.01 5.67 16.02 5.34 15 5 C14.01 5.495 14.01 5.495 13 6 C8.55630163 6.52329267 5.12876551 6.82592598 1.4375 4.125 C0 2 0 2 0 0 Z " fill="#E3E8EE" transform="translate(665,347)"/>
<path d="M0 0 C6.27 0 12.54 0 19 0 C18.01 0.66 17.02 1.32 16 2 C16 2.66 16 3.32 16 4 C12.49070865 6.1398118 10.47083412 7.01596048 6.3125 6.875 C1.74473684 5.66842105 1.74473684 5.66842105 0 3 C0 2.01 0 1.02 0 0 Z " fill="#ECECEA" transform="translate(371,347)"/>
<path d="M0 0 C0.99 0.33 1.98 0.66 3 1 C3 6.94 3 12.88 3 19 C1.35 19 -0.3 19 -2 19 C-2.05380578 16.20807795 -2.09357669 13.4171859 -2.125 10.625 C-2.14175781 9.8309375 -2.15851563 9.036875 -2.17578125 8.21875 C-2.19335473 6.14507985 -2.10335168 4.07116759 -2 2 C-1.34 1.34 -0.68 0.68 0 0 Z " fill="#474C53" transform="translate(434,338)"/>
<path d="M0 0 C0.66 0.33 1.32 0.66 2 1 C1.67 1.99 1.34 2.98 1 4 C0.40832031 4.01417969 -0.18335938 4.02835937 -0.79296875 4.04296875 C-5.12606677 4.30450974 -7.44552712 4.58414534 -11 7.25 C-12.99496782 9.99308075 -13.71346097 11.6570446 -14 15 C-14.33 15 -14.66 15 -15 15 C-16.72234368 5.10931351 -16.72234368 5.10931351 -14.25 1.3125 C-9.52908161 -0.59402473 -5.03068693 -0.49415765 0 0 Z " fill="#2763D0" transform="translate(585,332)"/>
<path d="M0 0 C3 2.5 3 2.5 5 5 C3.35 6.32 1.7 7.64 0 9 C-0.33 8.01 -0.66 7.02 -1 6 C-5.89895217 4.81503452 -5.89895217 4.81503452 -10.4375 6.4375 C-10.953125 6.953125 -11.46875 7.46875 -12 8 C-12.99 7.01 -13.98 6.02 -15 5 C-12.19641005 -0.60717989 -5.42263238 -0.68858824 0 0 Z " fill="#52555D" transform="translate(431,332)"/>
<path d="M0 0 C2.375 1.25 2.375 1.25 4 3 C4 4.32 4 5.64 4 7 C3.08476562 7.06058594 2.16953125 7.12117188 1.2265625 7.18359375 C0.03804688 7.26738281 -1.15046875 7.35117187 -2.375 7.4375 C-4.15003906 7.55931641 -4.15003906 7.55931641 -5.9609375 7.68359375 C-8.91518901 7.81084936 -8.91518901 7.81084936 -11 9 C-10.125 5.125 -10.125 5.125 -9 4 C-9.66 3.34 -10.32 2.68 -11 2 C-7.17773189 0.2012856 -4.22194982 -0.4491436 0 0 Z " fill="#D6D6D6" transform="translate(324,336)"/>
<path d="M0 0 C2.375 1.25 2.375 1.25 4 3 C4 4.32 4 5.64 4 7 C-0.95 7 -5.9 7 -11 7 C-8.45767608 0.64419019 -6.65845252 -0.67943393 0 0 Z " fill="#DEDEDE" transform="translate(381,336)"/>
<path d="M0 0 C0.7940625 0.08894531 1.588125 0.17789062 2.40625 0.26953125 C3.59734375 0.38361328 3.59734375 0.38361328 4.8125 0.5 C6.90625 1.08203125 6.90625 1.08203125 8.90625 4.08203125 C8.90625 5.07203125 8.90625 6.06203125 8.90625 7.08203125 C3.95625 7.08203125 -0.99375 7.08203125 -6.09375 7.08203125 C-3.31285538 0.12979471 -3.31285538 0.12979471 0 0 Z " fill="#E8E8E8" transform="translate(453.09375,335.91796875)"/>
<path d="M0 0 C0.66 1.32 1.32 2.64 2 4 C2.66 4 3.32 4 4 4 C3.67 9.94 3.34 15.88 3 22 C1.68 22 0.36 22 -1 22 C-1.02895225 18.70835171 -1.0467823 15.41673601 -1.0625 12.125 C-1.07506836 10.71927734 -1.07506836 10.71927734 -1.08789062 9.28515625 C-1.09111328 8.38925781 -1.09433594 7.49335938 -1.09765625 6.5703125 C-1.10289307 5.74289551 -1.10812988 4.91547852 -1.11352539 4.06298828 C-1 2 -1 2 0 0 Z " fill="#44484E" transform="translate(415,335)"/>
<path d="M0 0 C1.37478516 0.01740234 1.37478516 0.01740234 2.77734375 0.03515625 C3.69644531 0.04417969 4.61554688 0.05320312 5.5625 0.0625 C6.27277344 0.07410156 6.98304688 0.08570313 7.71484375 0.09765625 C7.40234375 2.97265625 7.40234375 2.97265625 6.71484375 6.09765625 C3.26238551 8.39929507 1.76745662 8.44255947 -2.28515625 8.09765625 C-2.94515625 7.43765625 -3.60515625 6.77765625 -4.28515625 6.09765625 C-3.56009338 0.15214074 -3.56009338 0.15214074 0 0 Z " fill="#D6D6D6" transform="translate(320.28515625,345.90234375)"/>
<path d="M0 0 C1.9375 1.9375 1.9375 1.9375 3 4 C3 4.66 3 5.32 3 6 C-1.95 6 -6.9 6 -12 6 C-11 2 -11 2 -9.375 0.1875 C-5.89439246 -1.55280377 -3.69254899 -1.00705882 0 0 Z " fill="#DFE4EE" transform="translate(677,337)"/>
<path d="M0 0 C0.66 0 1.32 0 2 0 C2 14.52 2 29.04 2 44 C1.34 44 0.68 44 0 44 C-0.93423645 40.98968256 -1.04449911 40.13349732 0 37 C0.08518867 34.19573548 0.1158852 31.4170365 0.09765625 28.61328125 C0.0962413 27.79627243 0.09482635 26.97926361 0.09336853 26.13749695 C0.08777294 23.52912732 0.07522129 20.92084366 0.0625 18.3125 C0.05748443 16.54362103 0.05292162 14.77474072 0.04882812 13.00585938 C0.03780496 8.67053981 0.02054338 4.33528448 0 0 Z " fill="#0B47AA" transform="translate(416,233)"/>
<path d="M0 0 C0.66 0.66 1.32 1.32 2 2 C1.46428571 5.53571429 1.46428571 5.53571429 0 7 C-0.23363881 8.84891946 -0.41303635 10.70488031 -0.5625 12.5625 C-0.64628906 13.57441406 -0.73007812 14.58632813 -0.81640625 15.62890625 C-0.87699219 16.41136719 -0.93757812 17.19382812 -1 18 C-3.475 17.01 -3.475 17.01 -6 16 C-6.05437607 14.41705218 -6.09296271 12.83355744 -6.125 11.25 C-6.14820313 10.36828125 -6.17140625 9.4865625 -6.1953125 8.578125 C-5.98833448 5.84601513 -5.47336314 4.29189821 -4 2 C-1.875 0.75 -1.875 0.75 0 0 Z " fill="#2263D5" transform="translate(540,328)"/>
<path d="M0 0 C1.0209375 0.5259375 1.0209375 0.5259375 2.0625 1.0625 C6.81421925 2.57900614 11.29134972 1.31842208 16 0 C16.33 1.32 16.66 2.64 17 4 C13.27486119 6.79385411 10.46656688 7.45908751 5.9375 7.3046875 C3.16432542 6.86858343 1.22155569 5.66616677 -1 4 C-0.67 2.68 -0.34 1.36 0 0 Z " fill="#5F6264" transform="translate(371,351)"/>
<path d="M0 0 C5.61 0 11.22 0 17 0 C16.34 0.66 15.68 1.32 15 2 C15.66 2.66 16.32 3.32 17 4 C12.73642817 6.41279406 8.81805731 6.90172816 4 6 C1.4375 3.5625 1.4375 3.5625 0 1 C0 0.67 0 0.34 0 0 Z " fill="#E6E8E7" transform="translate(447,347)"/>
<path d="M0 0 C0.66 0 1.32 0 2 0 C2 6.6 2 13.2 2 20 C0.68 20 -0.64 20 -2 20 C-2.05392397 17.22890693 -2.09363455 14.45886182 -2.125 11.6875 C-2.14175781 10.90181641 -2.15851563 10.11613281 -2.17578125 9.30664062 C-2.18544922 8.1706543 -2.18544922 8.1706543 -2.1953125 7.01171875 C-2.20578613 6.31522217 -2.21625977 5.61872559 -2.22705078 4.90112305 C-2 3 -2 3 0 0 Z " fill="#353B43" transform="translate(494,337)"/>
<path d="M0 0 C2 1.5 2 1.5 3 3 C2.34 5.31 1.68 7.62 1 10 C0.67 9.360625 0.34 8.72125 0 8.0625 C-3.02329832 4.9447236 -5.73656724 5.27956936 -10 5 C-10.33 5.66 -10.66 6.32 -11 7 C-11.66 6.67 -12.32 6.34 -13 6 C-13 5.01 -13 4.02 -13 3 C-8.80001484 -0.54373748 -5.2435987 -0.50744504 0 0 Z " fill="#4F5157" transform="translate(413,332)"/>
<path d="M0 0 C13.81549752 -0.72606994 24.4053514 1.66935503 35 11 C35 11.66 35 12.32 35 13 C31.68501191 12.39860836 29.82563295 11.26426539 27.25 9.125 C18.41290868 2.40042504 9.67379312 2.37565534 -1 2 C-0.67 1.34 -0.34 0.68 0 0 Z " fill="#D2EBF6" transform="translate(555,164)"/>
<path d="M0 0 C2.375 0.25 2.375 0.25 5 1 C6.3125 3.0625 6.3125 3.0625 7 5 C7.66 5 8.32 5 9 5 C9 5.99 9 6.98 9 8 C9.8971875 8.433125 9.8971875 8.433125 10.8125 8.875 C13 10 13 10 16 12 C16 12.66 16 13.32 16 14 C16.5775 14.226875 17.155 14.45375 17.75 14.6875 C20.5663661 16.33038023 22.08077114 18.39533227 24 21 C23.67 21.66 23.34 22.32 23 23 C21.16053461 21.38150935 19.32848583 19.75581169 17.5 18.125 C16.97535156 17.66480469 16.45070313 17.20460937 15.91015625 16.73046875 C14.56858245 15.52827924 13.28000815 14.26754054 12 13 C12 12.34 12 11.68 12 11 C11.319375 10.835 10.63875 10.67 9.9375 10.5 C5.6288122 8.299819 2.90950025 4.81505075 0 1 C0 0.67 0 0.34 0 0 Z " fill="#295BC2" transform="translate(381,130)"/>
<path d="M0 0 C0.99 0.66 1.98 1.32 3 2 C3.33 4.64 3.66 7.28 4 10 C-2.27 10 -8.54 10 -15 10 C-15 9.34 -15 8.68 -15 8 C-10.05 8 -5.1 8 0 8 C-0.66 5.69 -1.32 3.38 -2 1 C-1.34 0.67 -0.68 0.34 0 0 Z " fill="#404145" transform="translate(386,336)"/>
<path d="M0 0 C0.66 1.32 1.32 2.64 2 4 C-4.2423922 5.1093673 -10.35800448 5.14899051 -16.6875 5.125 C-17.71939453 5.12886719 -18.75128906 5.13273437 -19.81445312 5.13671875 C-20.80767578 5.13542969 -21.80089844 5.13414062 -22.82421875 5.1328125 C-23.72229248 5.13168457 -24.62036621 5.13055664 -25.5456543 5.12939453 C-27.8381816 5.00853116 -29.80341616 4.6442289 -32 4 C-32 3.34 -32 2.68 -32 2 C-16.16 2.495 -16.16 2.495 0 3 C0 2.01 0 1.02 0 0 Z " fill="#4380E8" transform="translate(576,275)"/>
<path d="M0 0 C1.65 0.33 3.3 0.66 5 1 C5 3.64 5 6.28 5 9 C-0.94 9 -6.88 9 -13 9 C-13 8.34 -13 7.68 -13 7 C-8.38 7 -3.76 7 1 7 C0.67 4.69 0.34 2.38 0 0 Z " fill="#205CCE" transform="translate(679,337)"/>
<path d="M0 0 C0.66 0 1.32 0 2 0 C2 0.99 2 1.98 2 3 C2.99 3 3.98 3 5 3 C5 8.28 5 13.56 5 19 C3.68 19.33 2.36 19.66 1 20 C0.67 13.4 0.34 6.8 0 0 Z " fill="#366AD1" transform="translate(648,337)"/>
<path d="M0 0 C0.66 0.66 1.32 1.32 2 2 C2.68642578 2.68255859 2.68642578 2.68255859 3.38671875 3.37890625 C4.54544106 4.5432398 5.69257173 5.7191523 6.83203125 6.90234375 C11.24808357 11.44033834 15.81764336 15.36132406 21 19 C18 20 18 20 15.75 19.5625 C12.26298462 17.58124126 10.24222172 15.02603773 7.7109375 11.953125 C5.95538981 9.80902734 5.95538981 9.80902734 3.125 7.875 C0.35793401 5.43347119 0.24545706 3.6000369 0 0 Z " fill="#D5F0F6" transform="translate(500,250)"/>
<path d="M0 0 C0.66 0.99 1.32 1.98 2 3 C2.66 3.66 3.32 4.32 4 5 C4.60751587 7.02505291 5.01130438 9.05490697 5.4375 11.125 C5.90475673 13.22082328 5.90475673 13.22082328 8 15 C9.98821313 15.39764263 11.98944339 15.73775349 14 16 C14 16.99 14 17.98 14 19 C5.35169918 18.27930826 5.35169918 18.27930826 2 15 C1.20703125 12.625 1.20703125 12.625 0.8125 10 C0.36318116 7.17810974 -0.09265537 4.72203388 -1 2 C-0.67 1.34 -0.34 0.68 0 0 Z " fill="#316DD3" transform="translate(568,337)"/>
<path d="M0 0 C1.65 0 3.3 0 5 0 C5.33 0.66 5.66 1.32 6 2 C7.65 1.34 9.3 0.68 11 0 C11.33 0.99 11.66 1.98 12 3 C12.66 3.66 13.32 4.32 14 5 C12.88625 5.28875 11.7725 5.5775 10.625 5.875 C6.99708908 6.69241329 6.99708908 6.69241329 5 9 C5 8.34 5 7.68 5 7 C4.01 7.33 3.02 7.66 2 8 C1.34 5.36 0.68 2.72 0 0 Z " fill="#3B70D7" transform="translate(599,332)"/>
<path d="M0 0 C0 0.33 0 0.66 0 1 C-2.31 1 -4.62 1 -7 1 C-7 2.32 -7 3.64 -7 5 C-4.69 5 -2.38 5 0 5 C0 5.33 0 5.66 0 6 C-0.90492188 6.07347656 -0.90492188 6.07347656 -1.828125 6.1484375 C-2.62734375 6.22320312 -3.4265625 6.29796875 -4.25 6.375 C-5.03890625 6.44460938 -5.8278125 6.51421875 -6.640625 6.5859375 C-9.085877 7.01507113 -10.84836903 7.78600638 -13 9 C-13.66 8.01 -14.32 7.02 -15 6 C-15.99 6 -16.98 6 -18 6 C-11.82554279 1.09546662 -7.9201007 -0.75429531 0 0 Z " fill="#5180D5" transform="translate(555,323)"/>
<path d="M0 0 C0.66 0.66 1.32 1.32 2 2 C1.34 2 0.68 2 0 2 C-0.0825 2.721875 -0.165 3.44375 -0.25 4.1875 C-1.1507657 7.56537138 -2.7673956 9.34878227 -5 12 C-5.33 12.99 -5.66 13.98 -6 15 C-6.66 15 -7.32 15 -8 15 C-8.66 13.02 -9.32 11.04 -10 9 C-6.7 6.03 -3.4 3.06 0 0 Z " fill="#2B91E3" transform="translate(501,223)"/>
<path d="M0 0 C0.33 0 0.66 0 1 0 C1 10.23 1 20.46 1 31 C0.67 31 0.34 31 0 31 C-0.33 23.08 -0.66 15.16 -1 7 C-1.66 8.32 -2.32 9.64 -3 11 C-3.99 11 -4.98 11 -6 11 C-6 7.41584854 -5.21108216 6.58796261 -3.0625 3.8125 C-2.51722656 3.09707031 -1.97195313 2.38164062 -1.41015625 1.64453125 C-0.94480469 1.10183594 -0.47945313 0.55914062 0 0 Z " fill="#2259CA" transform="translate(416,168)"/>
<path d="M0 0 C1.98 0 3.96 0 6 0 C6 2.31 6 4.62 6 7 C8.31 7 10.62 7 13 7 C13 8.32 13 9.64 13 11 C10.69 11 8.38 11 6 11 C6 15.62 6 20.24 6 25 C5.67 25 5.34 25 5 25 C5 17 5 9 5 1 C3.68 1 2.36 1 1 1 C1 2.98 1 4.96 1 7 C0.67 7 0.34 7 0 7 C0 4.69 0 2.38 0 0 Z " fill="#4C7EDC" transform="translate(718,325)"/>
<path d="M0 0 C5.71658336 -0.45732667 8.48649253 0.47726246 13 4 C12.67 4.99 12.34 5.98 12 7 C7.91621717 6.25749403 3.98060777 5.17076699 0 4 C0 2.68 0 1.36 0 0 Z " fill="#2963CD" transform="translate(699,332)"/>
<path d="M0 0 C0.74765625 0.48210937 1.4953125 0.96421875 2.265625 1.4609375 C3.74289062 2.40839844 3.74289062 2.40839844 5.25 3.375 C6.22453125 4.00148437 7.1990625 4.62796875 8.203125 5.2734375 C12.12426705 7.69403078 14.89472759 9.22546193 19.546875 9.4140625 C20.81337891 9.47207031 20.81337891 9.47207031 22.10546875 9.53125 C23.41451172 9.57765625 23.41451172 9.57765625 24.75 9.625 C25.63816406 9.66367188 26.52632812 9.70234375 27.44140625 9.7421875 C29.6273998 9.83620873 31.81339062 9.92186143 34 10 C34 10.33 34 10.66 34 11 C30.67063022 11.38923739 27.33891052 11.70456269 24 12 C23.2471875 12.09152344 22.494375 12.18304688 21.71875 12.27734375 C14.78700947 12.79220129 9.61874095 9.85790717 4 6 C1.67578125 3.921875 1.67578125 3.921875 0 2 C0 1.34 0 0.68 0 0 Z " fill="#4EB9E3" transform="translate(535,228)"/>
<path d="M0 0 C0.99 0.33 1.98 0.66 3 1 C2.71125588 3.79119313 2.09638046 4.90040685 0.125 6.9375 C-4.86784785 8.63506827 -9.14400972 6.65835045 -14 5 C-14 4.67 -14 4.34 -14 4 C-13.32453125 3.96261719 -12.6490625 3.92523438 -11.953125 3.88671875 C-11.06109375 3.82097656 -10.1690625 3.75523437 -9.25 3.6875 C-8.36828125 3.62949219 -7.4865625 3.57148438 -6.578125 3.51171875 C-3.9130256 3.17601859 -3.9130256 3.17601859 -1.859375 1.39453125 C-1.24578125 0.93433594 -0.6321875 0.47414063 0 0 Z " fill="#2B6CD4" transform="translate(560,349)"/>
<path d="M0 0 C0.99 0 1.98 0 3 0 C3 2.31 3 4.62 3 7 C-3.6 7 -10.2 7 -17 7 C-17 6.67 -17 6.34 -17 6 C-12.38 5.67 -7.76 5.34 -3 5 C-9.93 4.505 -9.93 4.505 -17 4 C-17 3.67 -17 3.34 -17 3 C-12.05 3 -7.1 3 -2 3 C-1.67 2.34 -1.34 1.68 -1 1 C-0.67 0.67 -0.34 0.34 0 0 Z " fill="#73757A" transform="translate(464,340)"/>
<path d="M0 0 C0.66 0 1.32 0 2 0 C1.52867281 8.95521668 -4.61923257 16.22692471 -11 22 C-11.66 21.67 -12.32 21.34 -13 21 C-12.154375 20.13375 -11.30875 19.2675 -10.4375 18.375 C-5.75879327 12.98164594 -3.00675053 6.41380809 0 0 Z " fill="#0F3EAC" transform="translate(503,200)"/>
<path d="M0 0 C-0.33 1.65 -0.66 3.3 -1 5 C-2.8253125 4.9690625 -2.8253125 4.9690625 -4.6875 4.9375 C-7.91977322 4.93175884 -10.84934741 5.21233685 -14 6 C-14.33 5.01 -14.66 4.02 -15 3 C-9.8531808 -0.16727335 -5.841744 -0.35050464 0 0 Z " fill="#4E5055" transform="translate(327,332)"/>
<path d="M0 0 C0.33 0 0.66 0 1 0 C1 6.93 1 13.86 1 21 C-0.65 21 -2.3 21 -4 21 C-4.33 20.34 -4.66 19.68 -5 19 C-5.99 19.33 -6.98 19.66 -8 20 C-10.35188447 19.40206327 -12.68925595 18.74118205 -15 18 C-14.67 17.34 -14.34 16.68 -14 16 C-10.7 16 -7.4 16 -4 16 C-3.67 17.32 -3.34 18.64 -3 20 C-2.01 20 -1.02 20 0 20 C0 13.4 0 6.8 0 0 Z " fill="#74777A" transform="translate(332,337)"/>
<path d="M0 0 C1.34440248 -0.02074045 2.68880354 -0.04157295 4.03320312 -0.0625 C5.94069336 -0.07023437 5.94069336 -0.07023437 7.88671875 -0.078125 C9.04776123 -0.0874707 10.20880371 -0.09681641 11.4050293 -0.10644531 C14.3125 0.25 14.3125 0.25 16.21411133 1.77050781 C16.57657959 2.25874023 16.93904785 2.74697266 17.3125 3.25 C15.3125 4.25 15.3125 4.25 11.56640625 3.3203125 C5.16156292 1.79321101 -1.20181071 2.03448808 -7.75 2.125 C-8.99716797 2.13402344 -10.24433594 2.14304687 -11.52929688 2.15234375 C-14.58223504 2.17573791 -17.63476306 2.20851826 -20.6875 2.25 C-20.6875 1.92 -20.6875 1.59 -20.6875 1.25 C-13.79442488 -0.05524409 -6.99490481 0.0273372 0 0 Z " fill="#B1CDEE" transform="translate(567.6875,121.75)"/>
<path d="M0 0 C3.51449145 0.01678897 4.38059167 0.07296179 7.25 2.3125 C7.724375 2.9725 8.19875 3.6325 8.6875 4.3125 C7.6975 5.3025 6.7075 6.2925 5.6875 7.3125 C4.22525201 6.88826756 2.76776588 6.44759755 1.3125 6 C0.50039063 5.75636719 -0.31171875 5.51273437 -1.1484375 5.26171875 C-3.3125 4.3125 -3.3125 4.3125 -5.3125 1.3125 C-3.74308802 -0.25691198 -2.17115006 0.0675153 0 0 Z " fill="#336BD6" transform="translate(673.3125,331.6875)"/>
<path d="M0 0 C0.66 0 1.32 0 2 0 C0.36170142 8.15248578 -4.34100144 16.00811917 -10 22 C-10.33 21.01 -10.66 20.02 -11 19 C-10.34 19 -9.68 19 -9 19 C-9 18.01 -9 17.02 -9 16 C-8.34 16 -7.68 16 -7 16 C-6.89816406 15.46890625 -6.79632813 14.9378125 -6.69140625 14.390625 C-5.79691899 11.2978216 -4.40138873 8.61548432 -2.9375 5.75 C-2.11572266 4.13351563 -2.11572266 4.13351563 -1.27734375 2.484375 C-0.85582031 1.66453125 -0.43429687 0.8446875 0 0 Z " fill="#CCE8F4" transform="translate(512,201)"/>
<path d="M0 0 C0.66 0.99 1.32 1.98 2 3 C1.3203125 5.13671875 1.3203125 5.13671875 0.125 7.6875 C-2.82684977 15.05721889 -2.35191187 22.20906225 -2 30 C-4.36889913 26.30451735 -4.38295718 22.63209128 -4.375 18.375 C-4.37628906 17.66730469 -4.37757813 16.95960938 -4.37890625 16.23046875 C-4.25860236 10.22621112 -2.86020353 5.31180656 0 0 Z " fill="#CCDFEF" transform="translate(529,183)"/>
<path d="M0 0 C0.33 0 0.66 0 1 0 C1 5.94 1 11.88 1 18 C0.01 18 -0.98 18 -2 18 C-2.05397335 15.5622037 -2.09365616 13.12560315 -2.125 10.6875 C-2.14175781 9.99720703 -2.15851563 9.30691406 -2.17578125 8.59570312 C-2.21217794 4.82864604 -2.14378864 3.21568296 0 0 Z " fill="#46494C" transform="translate(303,339)"/>
<path d="M0 0 C0.99 0.495 0.99 0.495 2 1 C2.60374792 3.53574127 2.95781126 6.07455172 3.33984375 8.65234375 C3.82448203 11.35303044 3.82448203 11.35303044 7 13 C8.155 12.979375 9.31 12.95875 10.5 12.9375 C14 13 14 13 15.71875 14.50390625 C16.35296875 15.24447266 16.35296875 15.24447266 17 16 C7.31877615 16.86097841 7.31877615 16.86097841 3.4375 13.625 C0.29133998 10.23682767 -0.1265422 8.85795376 -0.0625 4.375 C-0.05347656 3.55773437 -0.04445313 2.74046875 -0.03515625 1.8984375 C-0.02355469 1.27195312 -0.01195312 0.64546875 0 0 Z " fill="#185FD1" transform="translate(567,341)"/>
<path d="M0 0 C0.33 0.66 0.66 1.32 1 2 C0.22265625 3.7265625 0.22265625 3.7265625 -0.9375 5.625 C-1.618125 6.73875 -2.29875 7.8525 -3 9 C-3.66 9 -4.32 9 -5 9 C-5.144375 9.78375 -5.28875 10.5675 -5.4375 11.375 C-6 14 -6 14 -7 16 C-7.66 16 -8.32 16 -9 16 C-9.99 18.475 -9.99 18.475 -11 21 C-11.66015625 19.265625 -11.66015625 19.265625 -12 17 C-10.99609375 14.921875 -10.99609375 14.921875 -9.4375 12.75 C-8.88707031 11.97269531 -8.33664062 11.19539062 -7.76953125 10.39453125 C-6.89361328 9.20923828 -6.89361328 9.20923828 -6 8 C-5.42636719 7.22011719 -4.85273438 6.44023437 -4.26171875 5.63671875 C-2.85506717 3.7466356 -1.43551594 1.86820692 0 0 Z " fill="#0C3799" transform="translate(394,199)"/>
<path d="M0 0 C0.66 0 1.32 0 2 0 C1.67 1.65 1.34 3.3 1 5 C2.32 4.67 3.64 4.34 5 4 C5.25 6.8125 5.25 6.8125 5 10 C3 11.875 3 11.875 1 13 C0.67 12.34 0.34 11.68 0 11 C-0.66 11 -1.32 11 -2 11 C-1.34 7.37 -0.68 3.74 0 0 Z " fill="#F1F3F3" transform="translate(509,191)"/>
<path d="M0 0 C6.27 0 12.54 0 19 0 C18.01 0.66 17.02 1.32 16 2 C16 2.66 16 3.32 16 4 C12.14243493 6.15305957 9.44870215 7.39253254 5 7 C5.61875 6.731875 6.2375 6.46375 6.875 6.1875 C9.2995233 5.04443152 9.2995233 5.04443152 11 2 C7.7 1.67 4.4 1.34 1 1 C0.67 1.66 0.34 2.32 0 3 C0 2.01 0 1.02 0 0 Z " fill="#D9DAD9" transform="translate(371,347)"/>
<path d="M0 0 C1.32 0.66 2.64 1.32 4 2 C3 4 3 4 1.25 6 C-1.78415447 10.0455393 -3.84064652 14.44234818 -6 19 C-7 16 -7 16 -5.8203125 13.22265625 C-5.26085937 12.17980469 -4.70140625 11.13695312 -4.125 10.0625 C-1.52435589 5.2300747 -1.52435589 5.2300747 0 0 Z " fill="#2883F1" transform="translate(560,240)"/>
<path d="M0 0 C0 0.66 0 1.32 0 2 C-5.00932754 5.00559652 -8.32723489 5.29341888 -14 5 C-14 4.67 -14 4.34 -14 4 C-12.02 3.67 -10.04 3.34 -8 3 C-9.32 2.01 -10.64 1.02 -12 0 C-10.56666979 -0.39063507 -9.12807321 -0.76198474 -7.6875 -1.125 C-6.88699219 -1.33382813 -6.08648438 -1.54265625 -5.26171875 -1.7578125 C-3 -2 -3 -2 0 0 Z " fill="#4D81DC" transform="translate(683,353)"/>
<path d="M0 0 C1.1875 2.0625 1.1875 2.0625 2 4 C1.01 4.66 0.02 5.32 -1 6 C-1.73606499 9.56769552 -1.73606499 9.56769552 -2 13 C-2.33 13 -2.66 13 -3 13 C-3.0825 11.7625 -3.165 10.525 -3.25 9.25 C-3.63475459 6.01117036 -3.90024003 5.12092117 -6.0625 2.5 C-6.701875 2.005 -7.34125 1.51 -8 1 C-3.375 -1.125 -3.375 -1.125 0 0 Z " fill="#4374D4" transform="translate(590,335)"/>
<path d="M0 0 C0.33 1.32 0.66 2.64 1 4 C1.66 4 2.32 4 3 4 C3 4.66 3 5.32 3 6 C3.66 6.33 4.32 6.66 5 7 C3.35 8.65 1.7 10.3 0 12 C-2.475 11.01 -2.475 11.01 -5 10 C-4.360625 9.835 -3.72125 9.67 -3.0625 9.5 C-0.83880759 8.218214 -0.83880759 8.218214 -0.51171875 6.0859375 C-0.2724022 4.06424845 -0.13106972 2.03158061 0 0 Z " fill="#55585F" transform="translate(289,333)"/>
<path d="M0 0 C0.33 0.99 0.66 1.98 1 3 C-2.14591933 5.80045623 -4.067064 6.35261589 -8.25 6.1875 C-9.14203125 6.16042969 -10.0340625 6.13335937 -10.953125 6.10546875 C-11.96632813 6.05326172 -11.96632813 6.05326172 -13 6 C-10.78511966 2.67767949 -10.13888343 2.4289756 -6.5 1.3125 C-5.7059375 1.06113281 -4.911875 0.80976563 -4.09375 0.55078125 C-2 0 -2 0 0 0 Z " fill="#3E4146" transform="translate(464,351)"/>
<path d="M0 0 C1.32 0.66 2.64 1.32 4 2 C2.34197245 4.21070341 1.30185808 5.55817681 -1 7 C-4.37425965 7.43788102 -7.61677147 7.29562191 -11 7 C-11 6.67 -11 6.34 -11 6 C-7.535 5.505 -7.535 5.505 -4 5 C-3.67 4.01 -3.34 3.02 -3 2 C-2.01 1.34 -1.02 0.68 0 0 Z " fill="#1C63D3" transform="translate(708,350)"/>
<path d="M0 0 C0.81142566 2.34997302 1.10094925 3.65257725 0.3984375 6.0703125 C-2.38917893 11.66682487 -2.38917893 11.66682487 -5.75 13.5 C-6.4925 13.665 -7.235 13.83 -8 14 C-6.6744419 10.37723685 -5.05653045 7.36494652 -2.875 4.1875 C-2.33617187 3.39730469 -1.79734375 2.60710937 -1.2421875 1.79296875 C-0.83226562 1.20128906 -0.42234375 0.60960937 0 0 Z " fill="#2A58C0" transform="translate(408,179)"/>
<path d="M0 0 C0.99 0.66 1.98 1.32 3 2 C5.32387947 2.39387788 7.65793749 2.73486085 10 3 C9.67 3.99 9.34 4.98 9 6 C3.71502591 7.05699482 3.71502591 7.05699482 1 7 C-1.5 5.0625 -1.5 5.0625 -3 3 C-2.01 2.67 -1.02 2.34 0 2 C0 1.34 0 0.68 0 0 Z " fill="#5D5F62" transform="translate(448,350)"/>
<path d="M0 0 C0.66 0.33 1.32 0.66 2 1 C1.67 3.64 1.34 6.28 1 9 C0.01 9.33 -0.98 9.66 -2 10 C-2.66 10.99 -3.32 11.98 -4 13 C-3.40546697 3.40546697 -3.40546697 3.40546697 0 0 Z " fill="#525358" transform="translate(446,335)"/>
<path d="M0 0 C6.6 0 13.2 0 20 0 C19.01 0.66 18.02 1.32 17 2 C17.33 3.32 17.66 4.64 18 6 C16.0625 5.6875 16.0625 5.6875 14 5 C13.67 4.01 13.34 3.02 13 2 C11.56260487 1.97287934 10.12506137 1.95354933 8.6875 1.9375 C7.88699219 1.92589844 7.08648438 1.91429687 6.26171875 1.90234375 C3.83138666 1.90342145 3.83138666 1.90342145 1 3 C0.67 2.01 0.34 1.02 0 0 Z " fill="#D6DEEB" transform="translate(665,347)"/>
<path d="M0 0 C0.33 0 0.66 0 1 0 C1 5.94 1 11.88 1 18 C0.34 18 -0.32 18 -1 18 C-1.22119939 15.37549914 -1.42746669 12.75129514 -1.625 10.125 C-1.68945312 9.37863281 -1.75390625 8.63226563 -1.8203125 7.86328125 C-1.96087365 5.9129953 -1.98759849 3.95530533 -2 2 C-1.34 1.34 -0.68 0.68 0 0 Z " fill="#3D4146" transform="translate(434,338)"/>
<path d="M0 0 C3 3 3 3 3.36328125 5.3046875 C3.19372657 13.88676268 3.19372657 13.88676268 1 18 C0.67 18 0.34 18 0 18 C0 12.06 0 6.12 0 0 Z " fill="#C9D9F2" transform="translate(466,173)"/>
<path d="M0 0 C2 2 2 2 2.1953125 3.9453125 C2.13020833 5.96354167 2.06510417 7.98177083 2 10 C1.01 10.495 1.01 10.495 0 11 C-0.33 10.01 -0.66 9.02 -1 8 C-1.99 8.495 -1.99 8.495 -3 9 C-3 6.36 -3 3.72 -3 1 C-2.01 0.67 -1.02 0.34 0 0 Z " fill="#2460CB" transform="translate(591,339)"/>
<path d="M0 0 C2.26562673 2.26562673 2.94462749 3.84160705 3.09765625 7.04296875 C3.06510417 9.02864583 3.03255208 11.01432292 3 13 C1.66666667 13 0.33333333 13 -1 13 C-1.02696365 11.20841511 -1.04637917 9.41671527 -1.0625 7.625 C-1.07410156 6.62726563 -1.08570313 5.62953125 -1.09765625 4.6015625 C-1 2 -1 2 0 0 Z " fill="#D1DBEC" transform="translate(513,158)"/>
<path d="M0 0 C3.7910119 1.44950455 7.3874638 3.15172566 11 5 C11 5.33 11 5.66 11 6 C9.37581255 6.08090971 7.75048255 6.13914995 6.125 6.1875 C5.22007812 6.22230469 4.31515625 6.25710938 3.3828125 6.29296875 C2.20332031 6.14794922 2.20332031 6.14794922 1 6 C0.34 5.01 -0.32 4.02 -1 3 C-0.67 2.01 -0.34 1.02 0 0 Z " fill="#454749" transform="translate(371,351)"/>
<path d="M0 0 C0.33 0 0.66 0 1 0 C1.103125 0.94875 1.20625 1.8975 1.3125 2.875 C1.68539295 6.29107501 1.68539295 6.29107501 5 8 C5.66 7.67 6.32 7.34 7 7 C7.5625 8.9375 7.5625 8.9375 8 11 C7 12 7 12 4.4375 12.0625 C3.633125 12.041875 2.82875 12.02125 2 12 C-0.60018816 8.09971775 -0.15085514 4.52565431 0 0 Z " fill="#437AD9" transform="translate(533,337)"/>
<path d="M0 0 C3.04172719 -0.0271045 6.08320997 -0.04688964 9.125 -0.0625 C9.9809375 -0.07087891 10.836875 -0.07925781 11.71875 -0.08789062 C16.26678411 -0.10538306 20.52383164 0.06807642 25 1 C24.67 2.32 24.34 3.64 24 5 C23.34 4.34 22.68 3.68 22 3 C19.67865823 2.5368669 19.67865823 2.5368669 16.9921875 2.3671875 C16.00605469 2.28339844 15.01992188 2.19960937 14.00390625 2.11328125 C12.45509766 1.99533203 12.45509766 1.99533203 10.875 1.875 C9.83472656 1.78863281 8.79445313 1.70226562 7.72265625 1.61328125 C5.14898411 1.40077621 2.57491983 1.19670844 0 1 C0 0.67 0 0.34 0 0 Z " fill="#3B78E5" transform="translate(555,123)"/>
<path d="M0 0 C5.12782839 4.50627344 8.68159947 10.06130626 12 16 C12 16.66 12 17.32 12 18 C9 17 9 17 8.0078125 15.3984375 C7.71648437 14.73070312 7.42515625 14.06296875 7.125 13.375 C5.73427056 10.37792416 4.22224653 7.77694731 2.25 5.125 C0 2 0 2 0 0 Z " fill="#3C7AEA" transform="translate(493,140)"/>
<path d="M0 0 C1.32 0 2.64 0 4 0 C4.042721 1.66611905 4.04063832 3.33382885 4 5 C3 6 3 6 -0.5625 6.0625 C-1.696875 6.041875 -2.83125 6.02125 -4 6 C-3.67 4.68 -3.34 3.36 -3 2 C-1.02 2.495 -1.02 2.495 1 3 C0.67 2.01 0.34 1.02 0 0 Z " fill="#EAE9E8" transform="translate(323,347)"/>
<path d="M0 0 C2.05078125 0.03255208 4.1015625 0.06510417 6.15234375 0.09765625 C6.81234375 1.41765625 7.47234375 2.73765625 8.15234375 4.09765625 C4.85234375 4.09765625 1.55234375 4.09765625 -1.84765625 4.09765625 C-2.17765625 3.10765625 -2.50765625 2.11765625 -2.84765625 1.09765625 C-1.84765625 0.09765625 -1.84765625 0.09765625 0 0 Z " fill="#D2DFED" transform="translate(640.84765625,336.90234375)"/>
<path d="M0 0 C1.9375 0.8125 1.9375 0.8125 4 2 C4.33 2.99 4.66 3.98 5 5 C4.67 5.66 4.34 6.32 4 7 C1.03824877 6.38722388 -0.38058783 5.74627478 -3 4 C-3 3.34 -3 2.68 -3 2 C-2.01 2 -1.02 2 0 2 C0 1.34 0 0.68 0 0 Z " fill="#326ED5" transform="translate(558,325)"/>
<path d="M0 0 C0.95076597 3.04245109 1.05491501 3.84494584 -0.0625 7 C-2.27589379 10.42719038 -4.49637496 11.97568331 -8 14 C-6.6744419 10.37723685 -5.05653045 7.36494652 -2.875 4.1875 C-2.33617187 3.39730469 -1.79734375 2.60710937 -1.2421875 1.79296875 C-0.83226562 1.20128906 -0.42234375 0.60960937 0 0 Z " fill="#2958BE" transform="translate(385,215)"/>
<path d="M0 0 C4.87664009 -0.34833144 7.77050005 0.58314288 12 3 C11.34 3.66 10.68 4.32 10 5 C6.17226914 4.57469657 2.6243277 3.26430036 -1 2 C-0.67 1.34 -0.34 0.68 0 0 Z " fill="#D4D5D5" transform="translate(348,336)"/>
<path d="M0 0 C3.16115776 1.36983503 3.9927092 1.9890638 6 5 C6 6.32 6 7.64 6 9 C1.125 7.125 1.125 7.125 0 6 C-0.04080783 4.00041636 -0.04254356 1.99954746 0 0 Z " fill="#3D4045" transform="translate(339,344)"/>
<path d="M0 0 C0.66 0.99 1.32 1.98 2 3 C-2.455 4.485 -2.455 4.485 -7 6 C-7.33 4.68 -7.66 3.36 -8 2 C-4.79191085 -0.1387261 -3.72301503 -0.47730962 0 0 Z " fill="#51555B" transform="translate(487,332)"/>
<path d="M0 0 C0.33 0 0.66 0 1 0 C1 4.29 1 8.58 1 13 C1.66 13 2.32 13 3 13 C3.33 12.34 3.66 11.68 4 11 C4 12.98 4 14.96 4 17 C2.68 17 1.36 17 0 17 C0 11.39 0 5.78 0 0 Z " fill="#323840" transform="translate(414,340)"/>
<path d="M0 0 C1.65 0 3.3 0 5 0 C5 2.66666667 5 5.33333333 5 8 C4.01 8.495 4.01 8.495 3 9 C2.67 7.68 2.34 6.36 2 5 C1.01 5 0.02 5 -1 5 C-0.67 3.35 -0.34 1.7 0 0 Z " fill="#5F6062" transform="translate(312,345)"/>
<path d="M0 0 C2.64 0 5.28 0 8 0 C8 0.66 8 1.32 8 2 C9.65 2 11.3 2 13 2 C13 2.33 13 2.66 13 3 C8.38 3 3.76 3 -1 3 C-0.67 2.01 -0.34 1.02 0 0 Z " fill="#565B62" transform="translate(273,344)"/>
<path d="M0 0 C1.32 0 2.64 0 4 0 C4.33 2.31 4.66 4.62 5 7 C4.34 7 3.68 7 3 7 C2.34 7.66 1.68 8.32 1 9 C-0.4783226 6.04335481 -0.06032783 3.25770263 0 0 Z " fill="#215DCE" transform="translate(689,342)"/>
<path d="M0 0 C0.99 0.33 1.98 0.66 3 1 C2.34 2.32 1.68 3.64 1 5 C-1.31 5 -3.62 5 -6 5 C-5.67 3.68 -5.34 2.36 -5 1 C-3.35 1.33 -1.7 1.66 0 2 C0 1.34 0 0.68 0 0 Z " fill="#EDECEB" transform="translate(376,338)"/>
<path d="M0 0 C0.33 0 0.66 0 1 0 C1 7.59 1 15.18 1 23 C0.34 23 -0.32 23 -1 23 C-1.93423645 19.98968256 -2.04449911 19.13349732 -1 16 C-0.77202438 13.26710707 -0.58331813 10.54957796 -0.4375 7.8125 C-0.39431641 7.06291016 -0.35113281 6.31332031 -0.30664062 5.54101562 C-0.20077315 3.69421625 -0.0999024 1.84713166 0 0 Z " fill="#034AB4" transform="translate(417,254)"/>
<path d="M0 0 C0.33 0 0.66 0 1 0 C1.33 5.28 1.66 10.56 2 16 C1.01 16 0.02 16 -1 16 C-1.02701408 13.89590361 -1.04640223 11.79170822 -1.0625 9.6875 C-1.07410156 8.51574219 -1.08570313 7.34398437 -1.09765625 6.13671875 C-1 3 -1 3 0 0 Z " fill="#1C4BB2" transform="translate(518,169)"/>
<path d="M0 0 C2.46800047 1.15173355 4.04783565 2.04783565 6 4 C5.75 6.0625 5.75 6.0625 5 8 C4.01 8.495 4.01 8.495 3 9 C0.70620251 5.55930376 0 4.27709699 0 0 Z " fill="#41464D" transform="translate(460,334)"/>
<path d="M0 0 C1.98 0.66 3.96 1.32 6 2 C6 4.31 6 6.62 6 9 C5.34 9 4.68 9 4 9 C4 8.34 4 7.68 4 7 C3.34 7 2.68 7 2 7 C1.34 4.69 0.68 2.38 0 0 Z " fill="#3D4149" transform="translate(288,330)"/>
<path d="M0 0 C2.99324263 1.0975223 3.84610901 1.67682892 5.25 4.625 C5.4975 5.40875 5.745 6.1925 6 7 C6.66 7 7.32 7 8 7 C8.33 8.65 8.66 10.3 9 12 C7.33333333 10.33333333 5.66666667 8.66666667 4 7 C3.236875 6.29875 2.47375 5.5975 1.6875 4.875 C0 3 0 3 0 0 Z " fill="#D1EDF4" transform="translate(615,142)"/>
<path d="M0 0 C0.93065133 2.60582371 1.14917407 3.64198224 0.0625 6.25 C-0.4634375 7.11625 -0.4634375 7.11625 -1 8 C-1.66 8 -2.32 8 -3 8 C-3.66 9.32 -4.32 10.64 -5 12 C-5.66 12 -6.32 12 -7 12 C-7 11.34 -7 10.68 -7 10 C-6.34 10 -5.68 10 -5 10 C-4.731875 9.278125 -4.46375 8.55625 -4.1875 7.8125 C-3.01017502 5.02409874 -1.60854116 2.55904276 0 0 Z " fill="#2959C2" transform="translate(396,198)"/>
<path d="M0 0 C2.31 0.33 4.62 0.66 7 1 C7.38218767 2.65614657 7.71395102 4.32457024 8 6 C7 7 7 7 3.4375 7.0625 C2.303125 7.041875 1.16875 7.02125 0 7 C0.66 6.34 1.32 5.68 2 5 C3.32 5 4.64 5 6 5 C6 4.34 6 3.68 6 3 C4.35 3 2.7 3 1 3 C0.67 2.01 0.34 1.02 0 0 Z " fill="#5188DE" transform="translate(724,351)"/>
<path d="M0 0 C0.33 0 0.66 0 1 0 C1.06058594 0.61488281 1.12117187 1.22976563 1.18359375 1.86328125 C1.26738281 2.67152344 1.35117187 3.47976563 1.4375 4.3125 C1.51871094 5.11300781 1.59992187 5.91351563 1.68359375 6.73828125 C1.95265693 9.16087179 1.95265693 9.16087179 3 12 C1.02253397 12.73080266 -0.98072489 13.39421747 -3 14 C-3.66 13.67 -4.32 13.34 -5 13 C-4.360625 12.525625 -3.72125 12.05125 -3.0625 11.5625 C-0.15149728 7.94579965 -0.19350218 4.52795106 0 0 Z " fill="#BFCEE7" transform="translate(566,341)"/>
<path d="M0 0 C0.33 0 0.66 0 1 0 C1 6.27 1 12.54 1 19 C0.01 19 -0.98 19 -2 19 C-1.84660156 18.32582031 -1.69320313 17.65164063 -1.53515625 16.95703125 C-0.91516143 13.53122048 -0.6647426 10.16106553 -0.4375 6.6875 C-0.35371094 5.43324219 -0.26992188 4.17898438 -0.18359375 2.88671875 C-0.12300781 1.93410156 -0.06242187 0.98148437 0 0 Z " fill="#3F444A" transform="translate(331,338)"/>
<path d="M0 0 C2.12472576 -0.05386629 4.24983652 -0.09273071 6.375 -0.125 C7.55835938 -0.14820313 8.74171875 -0.17140625 9.9609375 -0.1953125 C13 0 13 0 15 2 C14 3 14 3 10.4375 3.0625 C9.303125 3.041875 8.16875 3.02125 7 3 C7 2.34 7 1.68 7 1 C4.69 1 2.38 1 0 1 C0 0.67 0 0.34 0 0 Z " fill="#44484F" transform="translate(274,343)"/>
<path d="M0 0 C0.66 0.99 1.32 1.98 2 3 C2.66 3.66 3.32 4.32 4 5 C4.56520003 7.65537372 4.73788198 10.29144713 5 13 C3.68 12.67 2.36 12.34 1 12 C0.855625 10.906875 0.71125 9.81375 0.5625 8.6875 C0.11711896 5.06877013 0.11711896 5.06877013 -1 2 C-0.67 1.34 -0.34 0.68 0 0 Z " fill="#4073D5" transform="translate(568,337)"/>
<path d="M0 0 C0.94552734 0.16242188 0.94552734 0.16242188 1.91015625 0.328125 C2.57015625 1.318125 3.23015625 2.308125 3.91015625 3.328125 C1.09765625 3.953125 1.09765625 3.953125 -2.08984375 4.328125 C-3.07984375 3.668125 -4.06984375 3.008125 -5.08984375 2.328125 C-5.74984375 1.998125 -6.40984375 1.668125 -7.08984375 1.328125 C-5.19856033 -0.56315842 -2.51916649 0.0914398 0 0 Z " fill="#DDE5F0" transform="translate(613.08984375,336.671875)"/>
<path d="M0 0 C2.91517292 1.07401108 4.77810176 1.77810176 7 4 C5.3125 5.125 5.3125 5.125 3 6 C0.25 5.125 0.25 5.125 -2 4 C-1.34 2.68 -0.68 1.36 0 0 Z " fill="#55575F" transform="translate(380,332)"/>
<path d="M0 0 C0 0.66 0 1.32 0 2 C2.97 2 5.94 2 9 2 C9 2.33 9 2.66 9 3 C8.39671875 3.04898437 7.7934375 3.09796875 7.171875 3.1484375 C5.97304688 3.26058594 5.97304688 3.26058594 4.75 3.375 C3.56664062 3.47941406 3.56664062 3.47941406 2.359375 3.5859375 C-0.085877 4.01507113 -1.84836903 4.78600638 -4 6 C-4.33 4.68 -4.66 3.36 -5 2 C-2 0 -2 0 0 0 Z " fill="#4B81E0" transform="translate(546,326)"/>
<path d="M0 0 C0.66 0 1.32 0 2 0 C1.49890042 4.38462134 0.01704885 6.8000997 -3 10 C-3.66 10 -4.32 10 -5 10 C-4.49890042 5.61537866 -3.01704885 3.1999003 0 0 Z " fill="#133CAB" transform="translate(623,244)"/>
<path d="M0 0 C2.475 0.99 2.475 0.99 5 2 C5.33 1.34 5.66 0.68 6 0 C6.66 0.33 7.32 0.66 8 1 C7.67 2.65 7.34 4.3 7 6 C2.32307692 4.52307692 2.32307692 4.52307692 0.6875 1.875 C0.460625 1.25625 0.23375 0.6375 0 0 Z " fill="#505458" transform="translate(340,351)"/>
<path d="M0 0 C0.33 0.66 0.66 1.32 1 2 C1.99 2.33 2.98 2.66 4 3 C3.01 3.66 2.02 4.32 1 5 C0.26393501 8.56769552 0.26393501 8.56769552 0 12 C-0.66 11.67 -1.32 11.34 -2 11 C-2.28571429 3.57142857 -2.28571429 3.57142857 0 0 Z " fill="#5C5D5F" transform="translate(367,337)"/>
<path d="M0 0 C0.33 1.32 0.66 2.64 1 4 C2.65 4 4.3 4 6 4 C6 4.33 6 4.66 6 5 C1.545 5.495 1.545 5.495 -3 6 C-3 5.34 -3 4.68 -3 4 C-3.66 4 -4.32 4 -5 4 C-5 3.34 -5 2.68 -5 2 C-3.35 1.34 -1.7 0.68 0 0 Z " fill="#4375D2" transform="translate(698,332)"/>
<path d="M0 0 C0.66 0.33 1.32 0.66 2 1 C0.59928507 6.29158974 -2.85487245 8.77478044 -7 12 C-5.61735163 9.13132769 -4.07851447 6.43975968 -2.375 3.75 C-1.92898438 3.04359375 -1.48296875 2.3371875 -1.0234375 1.609375 C-0.68570312 1.07828125 -0.34796875 0.5471875 0 0 Z " fill="#387FDD" transform="translate(509,212)"/>
<path d="M0 0 C0.66 0 1.32 0 2 0 C1.39305845 3.15330554 0.3583335 5.18888867 -1.5625 7.75 C-2.24505859 8.67039063 -2.24505859 8.67039063 -2.94140625 9.609375 C-3.29074219 10.06828125 -3.64007812 10.5271875 -4 11 C-4.64453125 9.234375 -4.64453125 9.234375 -5 7 C-4.07421875 5.078125 -4.07421875 5.078125 -2.6875 3.25 C-2.23761719 2.63640625 -1.78773438 2.0228125 -1.32421875 1.390625 C-0.88722656 0.93171875 -0.45023438 0.4728125 0 0 Z " fill="#E1EAF3" transform="translate(535,174)"/>
<path d="M0 0 C0 0.99 0 1.98 0 3 C-0.99 3.66 -1.98 4.32 -3 5 C-3 5.33 -3 5.66 -3 6 C-4.98 6 -6.96 6 -9 6 C-9.33 5.34 -9.66 4.68 -10 4 C-6.7 2.68 -3.4 1.36 0 0 Z " fill="#1F48A9" transform="translate(537,126)"/>
<path d="M0 0 C0.66 1.32 1.32 2.64 2 4 C-0.81814566 5.40907283 -2.17277204 4.50872691 -5.125 3.5625 C-6.03507813 3.27503906 -6.94515625 2.98757813 -7.8828125 2.69140625 C-8.58148437 2.46324219 -9.28015625 2.23507812 -10 2 C-10 1.67 -10 1.34 -10 1 C-6.7 0.67 -3.4 0.34 0 0 Z " fill="#1C64D7" transform="translate(556,352)"/>
<path d="M0 0 C0.33 0.66 0.66 1.32 1 2 C1.99 1.67 2.98 1.34 4 1 C5.32 2.65 6.64 4.3 8 6 C5.21176345 7.0326802 4.1322726 7.04509293 1.25 6.0625 C0.5075 5.711875 -0.235 5.36125 -1 5 C-0.67 3.35 -0.34 1.7 0 0 Z " fill="#366DD5" transform="translate(691,347)"/>
<path d="M0 0 C2.31 0.33 4.62 0.66 7 1 C7 1.99 7 2.98 7 4 C3.7 4 0.4 4 -3 4 C-2.01 2.68 -1.02 1.36 0 0 Z " fill="#F4F1F0" transform="translate(320,338)"/>
<path d="M0 0 C4.455 0.99 4.455 0.99 9 2 C8.67 2.99 8.34 3.98 8 5 C5.69 4.67 3.38 4.34 1 4 C0.67 2.68 0.34 1.36 0 0 Z " fill="#E0E6EC" transform="translate(703,337)"/>
<path d="M0 0 C3.375 -0.125 3.375 -0.125 7 0 C7.66 0.66 8.32 1.32 9 2 C5.77208445 4.1519437 4.71599191 4.20086443 1 4 C0.67 2.68 0.34 1.36 0 0 Z " fill="#42454D" transform="translate(349,332)"/>
<path d="M0 0 C-1.26538369 0.84158536 -2.53753779 1.67299748 -3.8125 2.5 C-4.87404297 3.19609375 -4.87404297 3.19609375 -5.95703125 3.90625 C-8 5 -8 5 -11 5 C-11 4.34 -11 3.68 -11 3 C-10.34 3 -9.68 3 -9 3 C-8.67 2.01 -8.34 1.02 -8 0 C-2.25 -1.125 -2.25 -1.125 0 0 Z " fill="#1139A3" transform="translate(487,226)"/>
<path d="M0 0 C0.33 1.32 0.66 2.64 1 4 C0.08476562 4.06058594 -0.83046875 4.12117188 -1.7734375 4.18359375 C-2.96195312 4.26738281 -4.15046875 4.35117187 -5.375 4.4375 C-7.15003906 4.55931641 -7.15003906 4.55931641 -8.9609375 4.68359375 C-11.91518901 4.81084936 -11.91518901 4.81084936 -14 6 C-13.67 4.68 -13.34 3.36 -13 2 C-10.22003893 2 -7.57507433 2.21297929 -4.8125 2.5 C-3.91144531 2.5928125 -3.01039063 2.685625 -2.08203125 2.78125 C-1.39496094 2.8534375 -0.70789063 2.925625 0 3 C0 2.01 0 1.02 0 0 Z " fill="#CBCBC9" transform="translate(327,339)"/>
<path d="M0 0 C0.99 0.66 1.98 1.32 3 2 C2.34 4.31 1.68 6.62 1 9 C0.62875 8.360625 0.2575 7.72125 -0.125 7.0625 C-2.58052793 4.36141928 -4.44578805 4.31592995 -8 4 C-8 3.67 -8 3.34 -8 3 C-6.865625 2.87625 -5.73125 2.7525 -4.5625 2.625 C-3.386875 2.41875 -2.21125 2.2125 -1 2 C-0.67 1.34 -0.34 0.68 0 0 Z " fill="#62666A" transform="translate(413,333)"/>
<path d="M0 0 C0.66 0 1.32 0 2 0 C1.8864371 1.64666203 1.75882619 3.29236082 1.625 4.9375 C1.52058594 6.31228516 1.52058594 6.31228516 1.4140625 7.71484375 C1.27742188 8.46894531 1.14078125 9.22304688 1 10 C0.01 10.495 0.01 10.495 -1 11 C-2.25 3.375 -2.25 3.375 0 0 Z " fill="#454950" transform="translate(494,337)"/>
<path d="M0 0 C1.32 0 2.64 0 4 0 C3.67 1.32 3.34 2.64 3 4 C2.67 4 2.34 4 2 4 C1.67 6.97 1.34 9.94 1 13 C0.67 13 0.34 13 0 13 C0 8.71 0 4.42 0 0 Z " fill="#393C43" transform="translate(473,332)"/>
<path d="M0 0 C2.475 0.99 2.475 0.99 5 2 C4.01 2.495 4.01 2.495 3 3 C3 3.66 3 4.32 3 5 C0.5 6.625 0.5 6.625 -2 8 C-1.125 1.125 -1.125 1.125 0 0 Z " fill="#4779DB" transform="translate(667,332)"/>
<path d="M0 0 C2.97 0 5.94 0 9 0 C8.67 1.65 8.34 3.3 8 5 C7.34 5 6.68 5 6 5 C6 4.34 6 3.68 6 3 C5.195625 2.87625 4.39125 2.7525 3.5625 2.625 C2.716875 2.41875 1.87125 2.2125 1 2 C0.67 1.34 0.34 0.68 0 0 Z " fill="#585B62" transform="translate(318,332)"/>
<path d="M0 0 C0.66 0.33 1.32 0.66 2 1 C2 1.66 2 2.32 2 3 C2.66 3 3.32 3 4 3 C4 3.99 4 4.98 4 6 C0.7 6 -2.6 6 -6 6 C-6 5.67 -6 5.34 -6 5 C-4.35 4.67 -2.7 4.34 -1 4 C-0.67 2.68 -0.34 1.36 0 0 Z " fill="#255FD2" transform="translate(412,271)"/>
<path d="M0 0 C0.99 0.495 0.99 0.495 2 1 C2.40729228 3.32156597 2.74438677 5.6568787 3 8 C3.66 8 4.32 8 5 8 C4.67 8.66 4.34 9.32 4 10 C3.01 10 2.02 10 1 10 C-0.04005702 6.61981469 -0.08004482 3.5219721 0 0 Z " fill="#D7DFE9" transform="translate(685,341)"/>
<path d="M0 0 C3 2 3 2 3.75 4.5 C4 7 4 7 3 9 C2.34 9 1.68 9 1 9 C0.87625 7.865625 0.7525 6.73125 0.625 5.5625 C0.41875 4.386875 0.2125 3.21125 0 2 C-0.66 1.67 -1.32 1.34 -2 1 C-1.34 0.67 -0.68 0.34 0 0 Z " fill="#46494F" transform="translate(386,336)"/>
<path d="M0 0 C0.66 0.33 1.32 0.66 2 1 C2 2.32 2 3.64 2 5 C0.68 5 -0.64 5 -2 5 C-2 6.98 -2 8.96 -2 11 C-2.33 11 -2.66 11 -3 11 C-3.36923077 4.6 -3.36923077 4.6 -1.5 1.5625 C-1.005 1.046875 -0.51 0.53125 0 0 Z " fill="#D3DDEB" transform="translate(697,337)"/>
<path d="M0 0 C1.32 0.99 2.64 1.98 4 3 C3.34 4.32 2.68 5.64 2 7 C1.67 6.01 1.34 5.02 1 4 C-1.50447516 2.78130071 -1.50447516 2.78130071 -4 2 C-2.68 1.34 -1.36 0.68 0 0 Z " fill="#DEDEDF" transform="translate(386,331)"/>
<path d="M0 0 C4.67105792 1.55701931 8.08705685 4.08447373 12 7 C11.34 7.66 10.68 8.32 10 9 C9.44570313 8.57847656 8.89140625 8.15695313 8.3203125 7.72265625 C7.59585938 7.17480469 6.87140625 6.62695312 6.125 6.0625 C5.40570312 5.51722656 4.68640625 4.97195312 3.9453125 4.41015625 C2.05642921 2.96035376 2.05642921 2.96035376 0 2 C0 1.34 0 0.68 0 0 Z " fill="#1941A8" transform="translate(606,232)"/>
<path d="M0 0 C0.99 0.33 1.98 0.66 3 1 C2.34 2.65 1.68 4.3 1 6 C-0.65 5.67 -2.3 5.34 -4 5 C-3 2 -3 2 0 0 Z " fill="#113CAD" transform="translate(585,231)"/>
<path d="M0 0 C0.33 0.99 0.66 1.98 1 3 C0.67 3.33 0.34 3.66 0 4 C0.66 4.66 1.32 5.32 2 6 C1 7 1 7 -1.5625 7.0625 C-2.7690625 7.0315625 -2.7690625 7.0315625 -4 7 C-3.43628586 3.73045798 -2.50037734 2.17424117 0 0 Z " fill="#2F64D2" transform="translate(381,225)"/>
<path d="M0 0 C0.66 0 1.32 0 2 0 C2.33 3.63 2.66 7.26 3 11 C2.34 11 1.68 11 1 11 C0.67 7.37 0.34 3.74 0 0 Z " fill="#3E70D1" transform="translate(506,164)"/>
<path d="M0 0 C0.625 1.875 0.625 1.875 1 4 C-1 6 -1 6 -3.3828125 6.1953125 C-4.28773438 6.17210937 -5.19265625 6.14890625 -6.125 6.125 C-7.49011719 6.09792969 -7.49011719 6.09792969 -8.8828125 6.0703125 C-9.58148437 6.04710937 -10.28015625 6.02390625 -11 6 C-11 5.67 -11 5.34 -11 5 C-8.36 5 -5.72 5 -3 5 C-3 4.34 -3 3.68 -3 3 C-2.34 3 -1.68 3 -1 3 C-0.67 2.01 -0.34 1.02 0 0 Z " fill="#C3D0E6" transform="translate(557,347)"/>
<path d="M0 0 C0.33 0 0.66 0 1 0 C1.33 2.31 1.66 4.62 2 7 C2.66 6.34 3.32 5.68 4 5 C4.33 5.99 4.66 6.98 5 8 C4.34 8.66 3.68 9.32 3 10 C2.01 10 1.02 10 0 10 C-1.125 2.25 -1.125 2.25 0 0 Z " fill="#E5F1F3" transform="translate(527,205)"/>
<path d="M0 0 C3.82097239 0.53069061 6.06171403 1.49701566 9 4 C8.67 4.99 8.34 5.98 8 7 C6.66382648 6.02471263 5.3311249 5.04466681 4 4.0625 C3.2575 3.51722656 2.515 2.97195312 1.75 2.41015625 C1.1725 1.94480469 0.595 1.47945312 0 1 C0 0.67 0 0.34 0 0 Z " fill="#C8DBF3" transform="translate(482,131)"/>
<path d="M0 0 C0.33 0.66 0.66 1.32 1 2 C-0.45792884 2.05399736 -1.91642712 2.09279177 -3.375 2.125 C-4.18710937 2.14820313 -4.99921875 2.17140625 -5.8359375 2.1953125 C-8 2 -8 2 -10 0 C-6.64338305 -1.67830848 -3.63864406 -0.6353188 0 0 Z " fill="#336FD3" transform="translate(675,355)"/>
<path d="M0 0 C2 2 2 2 2 5 C-0.95664519 6.4783226 -3.74229737 6.06032783 -7 6 C-7 5.67 -7 5.34 -7 5 C-5.02 5 -3.04 5 -1 5 C-1.33 3.68 -1.66 2.36 -2 1 C-1.34 0.67 -0.68 0.34 0 0 Z " fill="#72787D" transform="translate(516,352)"/>
<path d="M0 0 C0.33 0 0.66 0 1 0 C2.42258812 3.82320557 3.24042276 6.91281305 3 11 C2.01 11 1.02 11 0 11 C0 7.37 0 3.74 0 0 Z " fill="#44494F" transform="translate(473,345)"/>
<path d="M0 0 C0.99 0.33 1.98 0.66 3 1 C3 4 3 4 1.5 5.6875 C1.005 6.120625 0.51 6.55375 0 7 C-0.38133299 5.0085944 -0.71325582 3.00720923 -1 1 C-0.67 0.67 -0.34 0.34 0 0 Z " fill="#484C51" transform="translate(342,335)"/>
<path d="M0 0 C-1.65 1.32 -3.3 2.64 -5 4 C-6.65 3.01 -8.3 2.02 -10 1 C-9.401875 0.855625 -8.80375 0.71125 -8.1875 0.5625 C-2.61290323 -0.87096774 -2.61290323 -0.87096774 0 0 Z " fill="#DEDEDF" transform="translate(423,332)"/>
<path d="M0 0 C0.66 0 1.32 0 2 0 C2 0.99 2 1.98 2 3 C2.66 3.33 3.32 3.66 4 4 C-1.75 8 -1.75 8 -4 8 C-4 7.01 -4 6.02 -4 5 C-2.68 5 -1.36 5 0 5 C0 3.35 0 1.7 0 0 Z " fill="#D7DFED" transform="translate(562,327)"/>
<path d="M0 0 C0.78375 0.04125 1.5675 0.0825 2.375 0.125 C1.735625 0.558125 1.09625 0.99125 0.4375 1.4375 C-1.89246003 3.03739177 -1.89246003 3.03739177 -2.625 6.125 C-3.945 6.125 -5.265 6.125 -6.625 6.125 C-3.85227273 0.18344156 -3.85227273 0.18344156 0 0 Z " fill="#CED0D2" transform="translate(425.625,335.875)"/>
<path d="M0 0 C0.33 0.66 0.66 1.32 1 2 C0.2884375 2.7734375 0.2884375 2.7734375 -0.4375 3.5625 C-2.42809407 6.66782675 -2.65060818 9.36632504 -3 13 C-3.33 13 -3.66 13 -4 13 C-4.63019694 4.80743982 -4.63019694 4.80743982 -2 1.4375 C-1.34 0.963125 -0.68 0.48875 0 0 Z " fill="#CDD9EC" transform="translate(543,331)"/>
<path d="M0 0 C1.12894876 0.93274109 2.25300876 1.87140122 3.375 2.8125 C4.00148438 3.33457031 4.62796875 3.85664063 5.2734375 4.39453125 C7 6 7 6 9 9 C6.66471585 8.82701599 5.30822418 8.29774631 3.62109375 6.66796875 C0 2.42788462 0 2.42788462 0 0 Z " fill="#E6F1F8" transform="translate(491,136)"/>
<path d="M0 0 C0 1.98 0 3.96 0 6 C-0.99 6 -1.98 6 -3 6 C-3.33 4.35 -3.66 2.7 -4 1 C-1 0 -1 0 0 0 Z " fill="#494B4D" transform="translate(315,349)"/>
<path d="M0 0 C1.98 0 3.96 0 6 0 C6 0.66 6 1.32 6 2 C3 4 3 4 0.8125 3.625 C0.214375 3.41875 -0.38375 3.2125 -1 3 C-0.67 2.01 -0.34 1.02 0 0 Z " fill="#1759D0" transform="translate(642,332)"/>
<path d="M0 0 C2 3 2 3 2 5 C-0.375 7.625 -0.375 7.625 -3 10 C-3.66 10 -4.32 10 -5 10 C-3.33333333 6.66666667 -1.66666667 3.33333333 0 0 Z " fill="#C5D1E6" transform="translate(625,244)"/>
<path d="M0 0 C0.66 0.33 1.32 0.66 2 1 C1.43945339 4.36327963 0.58158962 6.99112219 -1 10 C-1.02689216 8.52093108 -1.04634621 7.04172517 -1.0625 5.5625 C-1.07410156 4.73878906 -1.08570313 3.91507813 -1.09765625 3.06640625 C-1 1 -1 1 0 0 Z " fill="#062E9A" transform="translate(518,184)"/>
<path d="M0 0 C1.32 0.33 2.64 0.66 4 1 C3.6875 2.9375 3.6875 2.9375 3 5 C2.01 5.33 1.02 5.66 0 6 C0 4.02 0 2.04 0 0 Z " fill="#0C3CB0" transform="translate(469,182)"/>
<path d="M0 0 C2.31 0 4.62 0 7 0 C6.34 1.32 5.68 2.64 5 4 C3.0625 3.6875 3.0625 3.6875 1 3 C0.67 2.01 0.34 1.02 0 0 Z " fill="#3564D2" transform="translate(378,126)"/>
<path d="M0 0 C0.99 0.66 1.98 1.32 3 2 C3 2.66 3 3.32 3 4 C1.02 4.99 1.02 4.99 -1 6 C-1.66 5.34 -2.32 4.68 -3 4 C-2.34 4 -1.68 4 -1 4 C-1.33 3.01 -1.66 2.02 -2 1 C-1.34 0.67 -0.68 0.34 0 0 Z " fill="#3F76D4" transform="translate(680,351)"/>
<path d="M0 0 C-2.28724116 2.28724116 -3.9006037 3.1144582 -7 4 C-9.1640625 3.046875 -9.1640625 3.046875 -11 2 C-9.54494642 1.47007308 -8.08581873 0.9513211 -6.625 0.4375 C-5.81289063 0.14746094 -5.00078125 -0.14257812 -4.1640625 -0.44140625 C-2 -1 -2 -1 0 0 Z " fill="#484A4E" transform="translate(464,352)"/>
<path d="M0 0 C0.33 0 0.66 0 1 0 C1.33 2.64 1.66 5.28 2 8 C1.01 8.33 0.02 8.66 -1 9 C-0.67 6.03 -0.34 3.06 0 0 Z " fill="#E0E0E1" transform="translate(441,343)"/>
<path d="M0 0 C0.99 0 1.98 0 3 0 C2.74438677 2.3431213 2.40729228 4.67843403 2 7 C1.01 7.495 1.01 7.495 0 8 C0 5.36 0 2.72 0 0 Z " fill="#1959C9" transform="translate(588,340)"/>
<path d="M0 0 C0.66 0.33 1.32 0.66 2 1 C1.34 2.98 0.68 4.96 0 7 C-0.66 7 -1.32 7 -2 7 C-2 6.34 -2 5.68 -2 5 C-2.66 4.67 -3.32 4.34 -4 4 C-2.68 2.68 -1.36 1.36 0 0 Z " fill="#336BD6" transform="translate(665,334)"/>
<path d="M0 0 C-0.33 0.99 -0.66 1.98 -1 3 C-3.31 3 -5.62 3 -8 3 C-5.53387212 -0.1151089 -3.89156016 -0.31553191 0 0 Z " fill="#C8D5ED" transform="translate(582,336)"/>
<path d="M0 0 C0.66 0.33 1.32 0.66 2 1 C1.360625 1.268125 0.72125 1.53625 0.0625 1.8125 C-2.33131686 2.88667752 -2.33131686 2.88667752 -3 6 C-4.65 6 -6.3 6 -8 6 C-5.38485683 3.87961365 -2.80362384 1.86908256 0 0 Z " fill="#BED2E7" transform="translate(487,225)"/>
<path d="M0 0 C1.67542976 0.28604898 3.34385343 0.61781233 5 1 C5 1.99 5 2.98 5 4 C5.66 4.33 6.32 4.66 7 5 C3.31245243 4.50168276 1.39509338 3.89932357 -1 1 C-0.67 0.67 -0.34 0.34 0 0 Z " fill="#174CBF" transform="translate(517,197)"/>
<path d="M0 0 C4.95 0.99 4.95 0.99 10 2 C9.01 2.66 8.02 3.32 7 4 C3.3125 3.125 3.3125 3.125 0 2 C0 1.34 0 0.68 0 0 Z " fill="#4DBEEC" transform="translate(580,125)"/>
<path d="M0 0 C1.65 0 3.3 0 5 0 C5 0.99 5 1.98 5 3 C4.01 3.33 3.02 3.66 2 4 C1.34 3.67 0.68 3.34 0 3 C0 2.01 0 1.02 0 0 Z " fill="#2466D6" transform="translate(582,353)"/>
<path d="M0 0 C0.99 0.33 1.98 0.66 3 1 C1.35 2.65 -0.3 4.3 -2 6 C-2.33 5.01 -2.66 4.02 -3 3 C-2.01 2.67 -1.02 2.34 0 2 C0 1.34 0 0.68 0 0 Z " fill="#4B5256" transform="translate(359,351)"/>
<path d="M0 0 C0.33 1.32 0.66 2.64 1 4 C0.01 4.66 -0.98 5.32 -2 6 C-2.66 5.34 -3.32 4.68 -4 4 C-2.68 2.68 -1.36 1.36 0 0 Z " fill="#4E5256" transform="translate(330,348)"/>
<path d="M0 0 C3.125 -0.1875 3.125 -0.1875 6 0 C5.67 0.99 5.34 1.98 5 3 C2.69 3 0.38 3 -2 3 C-1.34 2.01 -0.68 1.02 0 0 Z " fill="#4F5051" transform="translate(315,343)"/>
<path d="M0 0 C0.33 0 0.66 0 1 0 C1 3.63 1 7.26 1 11 C0.01 10.34 -0.98 9.68 -2 9 C-1.34 6.03 -0.68 3.06 0 0 Z " fill="#F6F6F6" transform="translate(394,332)"/>
<path d="M0 0 C1.65 0.33 3.3 0.66 5 1 C5 1.66 5 2.32 5 3 C4.01 3 3.02 3 2 3 C1.01 4.485 1.01 4.485 0 6 C-0.66 4.68 -1.32 3.36 -2 2 C-1.34 2 -0.68 2 0 2 C0 1.34 0 0.68 0 0 Z " fill="#376FD6" transform="translate(617,335)"/>
<path d="M0 0 C0.33 0.99 0.66 1.98 1 3 C1.66 3.66 2.32 4.32 3 5 C1.02 5 -0.96 5 -3 5 C-3.33 3.68 -3.66 2.36 -4 1 C-2 0 -2 0 0 0 Z " fill="#5482D7" transform="translate(610,332)"/>
<path d="M0 0 C0.99 0 1.98 0 3 0 C3 1.32 3 2.64 3 4 C1.35 4.33 -0.3 4.66 -2 5 C-1.125 1.125 -1.125 1.125 0 0 Z " fill="#1E5ACA" transform="translate(571,334)"/>
<path d="M0 0 C2.50037734 2.17424117 3.43628586 3.73045798 4 7 C2.0625 6.1875 2.0625 6.1875 0 5 C-0.33 4.01 -0.66 3.02 -1 2 C-0.67 1.34 -0.34 0.68 0 0 Z " fill="#C7D3EA" transform="translate(508,148)"/>
<path d="M0 0 C0.66 0.66 1.32 1.32 2 2 C1.01 3.32 0.02 4.64 -1 6 C-2.32 5.34 -3.64 4.68 -5 4 C-3.35 2.68 -1.7 1.36 0 0 Z " fill="#1C47B0" transform="translate(516,137)"/>
</svg>
